<svg width="40" height="40" viewBox="0 0 40 40" fill="none" xmlns="http://www.w3.org/2000/svg">
<path d="M40 34.2857V17.1429H15.7143V34.2857H22.8571V37.1429H0V40H40V37.1429H32.8571V34.2857H40ZM32.8571 31.4286V27.1429H37.1429V31.4286H32.8571ZM30 27.1429V31.4286H25.7143V27.1429H30ZM25.7143 24.2857V20H30V24.2857H25.7143ZM37.1429 24.2857H32.8571V20H37.1429V24.2857ZM22.8571 20V24.2857H18.5714V20H22.8571ZM18.5714 31.4286V27.1429H22.8571V31.4286H18.5714ZM30 37.1429H25.7143V34.2857H30V37.1429ZM10.4757 18.5443C9.76534 17.9088 9.22523 17.1056 8.90454 16.2081C8.58386 15.3105 8.4928 14.3469 8.63966 13.4051C8.78652 12.4633 9.16662 11.5733 9.74536 10.8159C10.3241 10.0586 11.0831 9.45803 11.9532 9.06896C12.8234 8.6799 13.777 8.51468 14.7273 8.58834C15.6776 8.662 16.5944 8.97221 17.3942 9.49072C18.194 10.0092 18.8514 10.7196 19.3065 11.557C19.7616 12.3945 20 13.3326 20 14.2857H17.1429C17.1431 13.809 17.0241 13.3399 16.7966 12.921C16.5692 12.502 16.2405 12.1467 15.8406 11.8873C15.4407 11.6279 14.9823 11.4726 14.507 11.4357C14.0318 11.3988 13.5548 11.4814 13.1197 11.6759C12.6845 11.8704 12.3049 12.1708 12.0155 12.5495C11.7261 12.9283 11.536 13.3734 11.4626 13.8444C11.3892 14.3154 11.4349 14.7973 11.5954 15.2462C11.7558 15.695 12.0261 16.0966 12.3814 16.4143L10.4757 18.5443ZM12.8571 0H15.7143V5.71429H12.8571V0ZM0 12.8571H5.71429V15.7143H0V12.8571ZM3.17429 5.19429L5.19429 3.17429L9.23429 7.21429L7.21429 9.23429L3.17429 5.19429ZM21.3571 9.23429L19.3371 7.21429L23.3771 3.17429L25.3971 5.19429L21.3571 9.23429Z" fill="white"/>
</svg>
