<svg width="40" height="40" viewBox="0 0 40 40" fill="none" xmlns="http://www.w3.org/2000/svg">
<path d="M11.25 10C11.9404 10 12.5 9.44036 12.5 8.75C12.5 8.05964 11.9404 7.5 11.25 7.5C10.5596 7.5 10 8.05964 10 8.75C10 9.44036 10.5596 10 11.25 10Z" fill="white"/>
<path d="M33.75 27.675V22.5C33.75 21.837 33.4866 21.2011 33.0178 20.7322C32.5489 20.2634 31.9131 20 31.25 20H21.25V15H32.5C33.1631 15 33.7989 14.7366 34.2678 14.2678C34.7366 13.7989 35 13.163 35 12.5V5C35 4.33696 34.7366 3.70107 34.2678 3.23223C33.7989 2.76339 33.1631 2.5 32.5 2.5H7.50001C6.83697 2.5 6.20109 2.76339 5.73224 3.23223C5.2634 3.70107 5.00001 4.33696 5.00001 5V12.5C5.00001 13.163 5.2634 13.7989 5.73224 14.2678C6.20109 14.7366 6.83697 15 7.50001 15H18.75V20H8.75001C8.08697 20 7.45109 20.2634 6.98224 20.7322C6.5134 21.2011 6.25001 21.837 6.25001 22.5V27.675C5.07169 27.9792 4.04478 28.7028 3.36176 29.71C2.67874 30.7172 2.38652 31.939 2.53986 33.1462C2.69321 34.3535 3.28159 35.4634 4.19472 36.2679C5.10785 37.0724 6.28304 37.5162 7.50001 37.5162C8.71698 37.5162 9.89217 37.0724 10.8053 36.2679C11.7184 35.4634 12.3068 34.3535 12.4602 33.1462C12.6135 31.939 12.3213 30.7172 11.6383 29.71C10.9552 28.7028 9.92834 27.9792 8.75001 27.675V22.5H18.75V27.5H15V37.5H25V27.5H21.25V22.5H31.25V27.675C30.0717 27.9792 29.0448 28.7028 28.3618 29.71C27.6787 30.7172 27.3865 31.939 27.5399 33.1462C27.6932 34.3535 28.2816 35.4634 29.1947 36.2679C30.1079 37.0724 31.283 37.5162 32.5 37.5162C33.717 37.5162 34.8922 37.0724 35.8053 36.2679C36.7184 35.4634 37.3068 34.3535 37.4602 33.1462C37.6135 31.939 37.3213 30.7172 36.6383 29.71C35.9552 28.7028 34.9283 27.9792 33.75 27.675ZM10 32.5C10 32.9945 9.85339 33.4778 9.57869 33.8889C9.30398 34.3 8.91354 34.6205 8.45672 34.8097C7.99991 34.9989 7.49724 35.0484 7.01229 34.952C6.52733 34.8555 6.08188 34.6174 5.73224 34.2678C5.38261 33.9181 5.14451 33.4727 5.04805 32.9877C4.95159 32.5028 5.00109 32.0001 5.19031 31.5433C5.37953 31.0865 5.69996 30.696 6.11109 30.4213C6.52221 30.1466 7.00556 30 7.50001 30C8.16305 30 8.79894 30.2634 9.26778 30.7322C9.73662 31.2011 10 31.837 10 32.5ZM22.5 30V35H17.5V30H22.5ZM7.50001 12.5V5H32.5V12.5H7.50001ZM32.5 35C32.0056 35 31.5222 34.8534 31.1111 34.5787C30.7 34.304 30.3795 33.9135 30.1903 33.4567C30.0011 32.9999 29.9516 32.4972 30.048 32.0123C30.1445 31.5273 30.3826 31.0819 30.7322 30.7322C31.0819 30.3826 31.5273 30.1445 32.0123 30.048C32.4972 29.9516 32.9999 30.0011 33.4567 30.1903C33.9135 30.3795 34.304 30.7 34.5787 31.1111C34.8534 31.5222 35 32.0055 35 32.5C35 33.163 34.7366 33.7989 34.2678 34.2678C33.7989 34.7366 33.1631 35 32.5 35Z" fill="white"/>
</svg>
