<svg width="223" height="55" viewBox="0 0 223 55" fill="none" xmlns="http://www.w3.org/2000/svg">
<g clip-path="url(#clip0_534_142)">
<g clip-path="url(#clip1_534_142)">
<path d="M39.836 39.7744L28.7557 51.65C28.7557 51.65 25.8054 54.9694 20.6576 51.9979C15.5133 49.0334 -2 40.1188 -2 40.1188C-2 40.1188 14.8281 44.1306 27.0303 45.3873C28.7557 45.5684 39.8395 39.778 39.8395 39.778L39.836 39.7744Z" fill="white"/>
<path d="M29.4338 13.0093L45.2572 16.666C45.2572 16.666 49.6063 17.5642 49.6063 23.5038C49.6098 29.4433 50.65 49.069 50.65 49.069C50.65 49.069 45.7081 32.4894 40.6952 21.2955C39.9887 19.7121 29.4338 13.0093 29.4338 13.0093Z" fill="white"/>
<path d="M11.4518 35.4041L6.70515 19.8718C6.70515 19.8718 5.30636 15.6542 10.4542 12.6862C15.5949 9.71106 32.0716 -1 32.0716 -1C32.0716 -1 20.1818 11.5714 12.9962 21.5049C11.9773 22.9073 11.4518 35.4041 11.4518 35.4041Z" fill="white"/>
</g>
<g clip-path="url(#clip2_534_142)">
<path d="M69 19.6206H70.6615L75.9563 27.551L81.2471 19.6206H82.9086V34.1537H81.2667V22.3819L75.9759 30.1669H75.8934L70.5986 22.4055V34.1537H69V19.6206Z" fill="white"/>
<path d="M86.1453 19.3101H87.9717V21.0737H86.1453V19.3101ZM86.2474 23.4225H87.846V34.1535H86.2474V23.4225Z" fill="white"/>
<path d="M95.7566 34.401C94.9671 34.401 94.2365 34.2518 93.5687 33.9572C92.8971 33.6587 92.3158 33.258 91.8248 32.7553C91.3338 32.2486 90.9489 31.6594 90.6739 30.9799C90.3989 30.3043 90.2615 29.5894 90.2615 28.8431V28.8038C90.2615 28.0418 90.3989 27.323 90.6739 26.6435C90.9489 25.9679 91.3377 25.3709 91.8248 24.8602C92.3158 24.3457 92.8971 23.9411 93.5687 23.6426C94.2365 23.3441 94.9671 23.1948 95.7566 23.1948C96.2672 23.1948 96.7346 23.242 97.147 23.3402C97.5634 23.4344 97.9444 23.5719 98.29 23.7447C98.6357 23.9176 98.9539 24.1218 99.2445 24.3575C99.5352 24.5931 99.8062 24.8406 100.054 25.1038L98.9931 26.2271C98.565 25.7872 98.0976 25.4023 97.5909 25.0841C97.0842 24.766 96.4675 24.6089 95.733 24.6089C95.191 24.6089 94.6882 24.7149 94.2168 24.9309C93.7455 25.147 93.337 25.4416 92.9913 25.8147C92.6457 26.1879 92.3747 26.6278 92.1822 27.1306C91.9897 27.6372 91.8915 28.1793 91.8915 28.7606V28.7999C91.8915 29.3812 91.9937 29.9233 92.194 30.426C92.3943 30.9327 92.6693 31.3766 93.0228 31.7537C93.3763 32.1347 93.7926 32.4332 94.2679 32.6453C94.7432 32.8574 95.2656 32.9674 95.8351 32.9674C96.5264 32.9674 97.1392 32.8142 97.6734 32.5117C98.2076 32.2054 98.6868 31.8244 99.1149 31.3687L100.132 32.3232C99.5902 32.932 98.9813 33.4309 98.294 33.8197C97.6105 34.2086 96.7621 34.401 95.7526 34.401H95.7566Z" fill="white"/>
<path d="M102.132 23.4229H103.73V26.2234C103.923 25.7835 104.166 25.3711 104.457 24.9979C104.748 24.6248 105.081 24.3027 105.455 24.0317C105.828 23.7607 106.236 23.5564 106.68 23.4189C107.124 23.2815 107.599 23.2186 108.114 23.2304V24.9547H107.988C107.407 24.9547 106.857 25.0608 106.338 25.265C105.82 25.4732 105.368 25.7835 104.979 26.1999C104.594 26.6123 104.288 27.1308 104.068 27.7435C103.848 28.3602 103.734 29.0711 103.734 29.8724V34.1499H102.136V23.4229H102.132Z" fill="white"/>
<path d="M114.791 34.4011C113.99 34.4011 113.247 34.2518 112.572 33.9572C111.892 33.6587 111.303 33.258 110.808 32.7553C110.309 32.2486 109.921 31.6633 109.646 30.9877C109.371 30.32 109.233 29.6012 109.233 28.8392V28.7999C109.233 28.0379 109.371 27.3191 109.646 26.6396C109.921 25.964 110.309 25.367 110.808 24.8563C111.303 24.3418 111.896 23.9372 112.584 23.6387C113.267 23.3402 114.017 23.1909 114.834 23.1909C115.651 23.1909 116.382 23.3402 117.065 23.6387C117.749 23.9372 118.342 24.3379 118.841 24.8446C119.34 25.3512 119.724 25.9365 120.003 26.6082C120.282 27.2798 120.42 27.9986 120.42 28.7567V28.796C120.42 29.558 120.274 30.2768 119.992 30.9563C119.709 31.6358 119.316 32.2289 118.817 32.7435C118.318 33.2541 117.725 33.6587 117.034 33.9572C116.343 34.2557 115.592 34.4011 114.791 34.4011ZM114.834 32.9674C115.416 32.9674 115.95 32.8574 116.433 32.6374C116.916 32.4175 117.332 32.119 117.678 31.7419C118.024 31.3687 118.295 30.9327 118.487 30.4339C118.68 29.9351 118.778 29.4048 118.778 28.8353V28.796C118.778 28.2147 118.676 27.6726 118.479 27.1659C118.279 26.6592 117.996 26.2193 117.639 25.8383C117.281 25.4573 116.857 25.1588 116.374 24.9349C115.887 24.7149 115.365 24.601 114.795 24.601C114.225 24.601 113.683 24.7149 113.2 24.9349C112.717 25.1549 112.305 25.4534 111.963 25.8265C111.625 26.2036 111.358 26.6396 111.166 27.1463C110.973 27.653 110.875 28.1872 110.875 28.7567V28.796C110.875 29.3773 110.977 29.9194 111.177 30.4221C111.378 30.9288 111.653 31.3687 112.006 31.7419C112.36 32.115 112.776 32.4136 113.263 32.6374C113.746 32.8574 114.269 32.9674 114.838 32.9674H114.834Z" fill="white"/>
<path d="M128.515 19.6206H139.018V21.0936H130.157V26.0977H138.087V27.5706H130.157V32.6768H139.124V34.1498H128.515V19.6206Z" fill="white"/>
<path d="M141.654 19H143.252V34.1537H141.654V19Z" fill="white"/>
<path d="M147.278 29.4401C147.333 30.0058 147.475 30.5124 147.695 30.9563C147.915 31.4001 148.198 31.7733 148.543 32.0757C148.889 32.3782 149.278 32.6099 149.706 32.771C150.134 32.932 150.586 33.0106 151.053 33.0106C151.799 33.0106 152.44 32.8731 152.974 32.5981C153.508 32.3232 153.995 31.954 154.439 31.4983L155.437 32.39C154.898 32.9988 154.278 33.4858 153.591 33.8551C152.895 34.2204 152.039 34.405 151.018 34.405C150.283 34.405 149.592 34.2675 148.944 34.0004C148.292 33.7294 147.722 33.3484 147.243 32.8574C146.756 32.3664 146.375 31.7733 146.088 31.082C145.805 30.3907 145.664 29.6287 145.664 28.7999C145.664 28.0261 145.79 27.2955 146.045 26.6081C146.3 25.9247 146.658 25.3277 147.113 24.8249C147.573 24.3182 148.111 23.9215 148.744 23.6308C149.372 23.3402 150.059 23.1948 150.81 23.1948C151.599 23.1948 152.306 23.3441 152.927 23.6426C153.547 23.9411 154.074 24.3457 154.502 24.8602C154.93 25.3709 155.256 25.9758 155.48 26.6631C155.7 27.3544 155.81 28.0968 155.81 28.8824V29.122C155.81 29.2123 155.802 29.3184 155.79 29.4441H147.282L147.278 29.4401ZM154.191 28.1322C154.148 27.649 154.046 27.1934 153.877 26.7613C153.712 26.3253 153.488 25.9443 153.202 25.6144C152.919 25.2845 152.573 25.0213 152.165 24.8288C151.756 24.6364 151.289 24.5421 150.762 24.5421C150.307 24.5421 149.879 24.6324 149.474 24.8092C149.073 24.9899 148.72 25.2373 148.414 25.5633C148.111 25.8893 147.86 26.2703 147.655 26.7103C147.455 27.1502 147.326 27.6255 147.271 28.1361H154.184L154.191 28.1322Z" fill="white"/>
<path d="M162.805 34.401C162.016 34.401 161.285 34.2518 160.614 33.9572C159.942 33.6587 159.361 33.258 158.87 32.7553C158.379 32.2486 157.994 31.6594 157.719 30.9799C157.44 30.3043 157.302 29.5894 157.302 28.8431V28.8038C157.302 28.0418 157.44 27.323 157.719 26.6435C157.994 25.9679 158.379 25.3709 158.87 24.8602C159.361 24.3457 159.942 23.9411 160.614 23.6426C161.285 23.3441 162.016 23.1948 162.805 23.1948C163.316 23.1948 163.78 23.242 164.196 23.3402C164.612 23.4344 164.993 23.5719 165.339 23.7447C165.685 23.9176 166.003 24.1218 166.293 24.3575C166.584 24.5931 166.855 24.8406 167.103 25.1038L166.046 26.2271C165.618 25.7872 165.15 25.4023 164.644 25.0841C164.137 24.766 163.516 24.6089 162.786 24.6089C162.244 24.6089 161.741 24.7149 161.27 24.9309C160.798 25.147 160.39 25.4416 160.044 25.8147C159.698 26.1879 159.427 26.6278 159.235 27.1306C159.043 27.6372 158.944 28.1793 158.944 28.7606V28.7999C158.944 29.3812 159.043 29.9233 159.243 30.426C159.443 30.9327 159.718 31.3766 160.076 31.7537C160.429 32.1347 160.845 32.4332 161.321 32.6453C161.796 32.8574 162.318 32.9674 162.888 32.9674C163.579 32.9674 164.192 32.8142 164.726 32.5117C165.256 32.2054 165.74 31.8244 166.168 31.3687L167.185 32.3232C166.647 32.932 166.034 33.4309 165.351 33.8197C164.663 34.2086 163.815 34.401 162.809 34.401H162.805Z" fill="white"/>
<path d="M172.766 34.3382C172.338 34.3382 171.938 34.2832 171.564 34.1732C171.191 34.0632 170.869 33.8865 170.598 33.6429C170.327 33.4033 170.119 33.0852 169.966 32.7003C169.813 32.3114 169.738 31.8479 169.738 31.3098V24.8327H168.241V23.4226H169.738V20.1821H171.337V23.4226H174.742V24.8327H171.337V31.0859C171.337 31.7497 171.502 32.2093 171.835 32.4724C172.165 32.7356 172.601 32.8652 173.143 32.8652C173.418 32.8652 173.682 32.8417 173.921 32.7867C174.165 32.7356 174.424 32.6453 174.699 32.5156V33.8865C174.424 34.0397 174.129 34.1536 173.819 34.2282C173.505 34.3028 173.155 34.3421 172.77 34.3421L172.766 34.3382Z" fill="white"/>
<path d="M176.918 23.4229H178.517V26.2234C178.713 25.7835 178.957 25.3711 179.244 24.9979C179.534 24.6248 179.868 24.3027 180.241 24.0317C180.614 23.7607 181.023 23.5564 181.467 23.4189C181.911 23.2815 182.386 23.2186 182.9 23.2304V24.9547H182.775C182.193 24.9547 181.643 25.0608 181.125 25.265C180.606 25.4732 180.155 25.7835 179.766 26.1999C179.381 26.6123 179.075 27.1308 178.855 27.7435C178.631 28.3602 178.521 29.0711 178.521 29.8724V34.1499H176.922V23.4229H176.918Z" fill="white"/>
<path d="M184.723 19.3101H186.549V21.0737H184.723V19.3101ZM184.829 23.4225H186.428V34.1535H184.829V23.4225Z" fill="white"/>
<path d="M194.334 34.401C193.545 34.401 192.814 34.2518 192.147 33.9572C191.475 33.6587 190.894 33.258 190.403 32.7553C189.912 32.2486 189.527 31.6594 189.252 30.9799C188.973 30.3043 188.835 29.5894 188.835 28.8431V28.8038C188.835 28.0418 188.973 27.323 189.252 26.6435C189.527 25.9679 189.912 25.3709 190.403 24.8602C190.898 24.3457 191.475 23.9411 192.147 23.6426C192.818 23.3441 193.545 23.1948 194.334 23.1948C194.845 23.1948 195.313 23.242 195.725 23.3402C196.137 23.4344 196.522 23.5719 196.868 23.7447C197.214 23.9176 197.532 24.1218 197.822 24.3575C198.113 24.5931 198.384 24.8406 198.632 25.1038L197.571 26.2271C197.143 25.7872 196.675 25.4023 196.169 25.0841C195.662 24.766 195.045 24.6089 194.311 24.6089C193.773 24.6089 193.266 24.7149 192.795 24.9309C192.323 25.147 191.915 25.4416 191.569 25.8147C191.224 26.1879 190.956 26.6278 190.76 27.1306C190.568 27.6372 190.469 28.1793 190.469 28.7606V28.7999C190.469 29.3812 190.568 29.9233 190.768 30.426C190.968 30.9327 191.247 31.3766 191.597 31.7537C191.95 32.1347 192.363 32.4332 192.842 32.6453C193.321 32.8574 193.84 32.9674 194.409 32.9674C195.1 32.9674 195.713 32.8142 196.243 32.5117C196.778 32.2054 197.257 31.8244 197.689 31.3687L198.706 32.3232C198.164 32.932 197.555 33.4309 196.868 33.8197C196.184 34.2086 195.336 34.401 194.327 34.401H194.334Z" fill="white"/>
<path d="M200.749 19.3101H202.575V21.0737H200.749V19.3101ZM200.855 23.4225H202.453V34.1535H200.855V23.4225Z" fill="white"/>
<path d="M209.115 34.3382C208.687 34.3382 208.286 34.2832 207.909 34.1732C207.536 34.0632 207.214 33.8865 206.947 33.6429C206.676 33.4033 206.464 33.0852 206.314 32.7003C206.161 32.3114 206.087 31.8479 206.087 31.3098V24.8327H204.59V23.4226H206.087V20.1821H207.685V23.4226H211.091V24.8327H207.685V31.0859C207.685 31.7497 207.85 32.2093 208.184 32.4724C208.518 32.7356 208.954 32.8652 209.492 32.8652C209.767 32.8652 210.03 32.8417 210.27 32.7867C210.513 32.7356 210.769 32.6453 211.048 32.5156V33.8865C210.769 34.0397 210.478 34.1536 210.168 34.2282C209.857 34.3028 209.508 34.3421 209.119 34.3421L209.115 34.3382Z" fill="white"/>
<path d="M214.928 37.5357C214.484 37.5357 214.084 37.4925 213.722 37.4021C213.361 37.3118 213.004 37.1783 212.642 36.9976L213.18 35.7328C213.443 35.8703 213.703 35.9724 213.958 36.0352C214.213 36.0981 214.516 36.1295 214.861 36.1295C215.345 36.1295 215.753 35.9842 216.087 35.6935C216.417 35.4029 216.743 34.8765 217.061 34.1145L212.183 23.4229H213.946L217.847 32.3666L221.295 23.4229H222.996L218.491 34.5073C218.035 35.615 217.525 36.3966 216.963 36.8522C216.401 37.3079 215.722 37.5357 214.92 37.5357H214.928Z" fill="white"/>
</g>
</g>
<defs>
<clipPath id="clip0_534_142">
<rect width="222.75" height="55" fill="white"/>
</clipPath>
<clipPath id="clip1_534_142">
<rect width="52.65" height="54.237" fill="white" transform="translate(-2 -1)"/>
</clipPath>
<clipPath id="clip2_534_142">
<rect width="154" height="18.5356" fill="white" transform="translate(69 19)"/>
</clipPath>
</defs>
</svg>
