<svg width="223" height="55" viewBox="0 0 223 55" fill="none" xmlns="http://www.w3.org/2000/svg">
<g clip-path="url(#clip0_174_667)">
<path d="M25.8981 53.3799C26.6627 53.169 27.415 52.7224 28.1426 51.9533L39.7599 39.4233C37.4784 40.7508 35.2462 41.8673 33.1003 42.8101C31.3861 43.6041 29.6226 44.3361 28.2043 44.7455C25.1335 47.636 21.9764 50.0552 19.2139 51.1593C20.7801 51.8912 22.112 52.4991 23.185 52.9706C24.0112 53.3055 25.0842 53.6157 25.8981 53.3924" fill="white"/>
<path d="M-2.02282 39.6094C3.4035 42.9838 8.49685 45.7875 12.8132 48.0081C12.8132 48.0081 19.2878 47.8717 28.2043 44.7454C28.118 44.7702 28.0316 44.795 27.9453 44.8198C27.6123 44.9067 27.119 44.9563 26.5271 44.9563C19.7565 44.9563 -2.03516 39.6218 -2.03516 39.6218" fill="white"/>
<path d="M28.2043 44.7456C19.2878 47.8719 12.8256 48.0084 12.8132 48.0084C15.2057 49.2365 17.3763 50.291 19.2138 51.1594C21.9887 50.0553 25.1335 47.6362 28.2043 44.7456Z" fill="white"/>
<path d="M28.2043 44.7456C19.2878 47.8719 12.8256 48.0084 12.8132 48.0084C12.8132 48.0084 19.2878 47.8719 28.2043 44.7456Z" fill="white"/>
<path d="M5.77139 15.4054C5.56174 16.1746 5.57407 17.0554 5.88239 18.0727L10.8647 34.4609C10.8647 31.8184 11.0127 29.3124 11.2717 26.9677C11.4444 25.0696 11.7034 23.1715 12.0487 21.7448C11.0991 17.6137 10.5934 13.6686 11.0251 10.7036C9.60682 11.6961 8.42289 12.5645 7.48562 13.2592C6.78266 13.8175 5.98105 14.5866 5.75906 15.4178" fill="white"/>
<path d="M16.9447 6.69678C14.6878 8.17308 12.7023 9.52532 11.0251 10.7039C10.9141 11.4358 10.8647 12.2174 10.8647 13.061C10.8647 15.629 11.3334 18.6312 12.0487 21.7451C12.4556 19.6361 12.912 17.7132 13.4053 15.9888C14.7372 11.2869 16.1924 8.17308 16.735 7.10617C16.735 7.10617 16.772 7.01933 16.7967 6.98211L16.8337 6.90768V6.87046H16.846C16.846 6.87046 16.8584 6.83324 16.8707 6.82084C16.883 6.78362 16.9077 6.75881 16.9077 6.7464V6.72159" fill="white"/>
<path d="M16.7351 7.09344C16.2048 8.16035 14.7372 11.2742 13.4053 15.9636C14.7372 11.2742 16.1924 8.16035 16.7351 7.09344ZM16.7967 6.96938C16.7967 6.96938 16.7597 7.04382 16.7351 7.09344C16.7597 7.05622 16.7721 7.0066 16.7967 6.96938ZM16.8337 6.89495L16.7967 6.95698L16.8337 6.89495ZM16.8707 6.80811C16.8707 6.80811 16.8584 6.83292 16.8461 6.84532L16.8707 6.80811Z" fill="white"/>
<path d="M48.4174 17.4279C47.8625 16.8696 47.0978 16.4354 46.0742 16.1873L29.4746 12.3291C31.7561 13.6565 33.828 15.0336 35.7272 16.4354C37.2688 17.5396 38.7734 18.7057 39.834 19.7354C43.8544 20.976 47.5171 22.5019 49.848 24.3628C49.7 22.6384 49.552 21.1745 49.4164 20.0083C49.2807 19.1151 49.0217 18.0358 48.4174 17.4279Z" fill="white"/>
<path d="M39.834 19.7354C46.9869 25.9507 50.329 31.5085 50.3413 31.5209C50.2057 28.8164 50.033 26.4097 49.848 24.3627C47.5048 22.5019 43.8544 20.9759 39.834 19.7354Z" fill="white"/>
<path d="M39.8215 19.7354L40.0189 19.9214C43.065 22.9857 50.5262 48.641 50.5262 48.641C50.7112 42.2272 50.5879 36.384 50.3289 31.5209C50.2179 31.3348 46.8634 25.8514 39.8215 19.7354Z" fill="white"/>
<path d="M31.5835 -2.03711C25.9598 1.00233 21.0021 4.04177 16.9324 6.69662V6.72143C16.9324 6.72143 16.9077 6.78346 16.8954 6.82068L16.8707 6.8579V6.88271H16.8461L16.8091 6.96955C16.8091 6.96955 16.7721 7.05639 16.7474 7.09361C16.2171 8.16052 14.7495 11.2868 13.4176 15.9762C12.9366 17.7006 12.468 19.6359 12.061 21.7449C12.0857 21.6581 12.1104 21.5713 12.1227 21.4844C13.2326 17.2788 31.5835 -2.03711 31.5835 -2.03711Z" fill="white"/>
<path d="M82.6918 14.8659C82.6795 16.7226 82.6795 18.5793 82.6795 20.4237V21.3213C82.6795 23.178 82.6795 25.0347 82.6918 26.8791L84.267 27.039V27.6783H78.8331V27.039L80.3473 26.8791C80.3961 25.0593 80.3595 23.2149 80.3961 21.6164L80.4328 15.825L76.4154 27.6906H75.6095L71.4822 15.8988C71.5311 17.7432 71.5677 20.1901 71.5677 20.9647V26.8299L73.2894 27.0512V27.6906H69.0156V27.0512L70.7618 26.8299L70.8228 14.9397L69.1011 14.6938V14.0298H73.1185L76.7695 24.4076L80.3229 14.0298H84.267V14.6938L82.6918 14.8536V14.8659Z" fill="white"/>
<path d="M90.9951 27.1248V27.6904H86.4649V27.1248L87.6615 26.965C87.6738 25.9198 87.6982 24.3828 87.6982 23.3745V22.0712C87.6982 20.8907 87.686 20.1899 87.6493 19.2677L86.3184 19.1201V18.616L89.6641 17.5708L89.8961 17.7307L89.8595 20.6079V23.3745C89.8595 24.3828 89.8717 25.9321 89.8961 26.9773L90.9951 27.1248ZM87.4295 14.1525C87.4295 13.3287 88.0279 12.7754 88.7239 12.7754C89.4199 12.7754 90.0182 13.3287 90.0182 14.1525C90.0182 14.9764 89.4199 15.5174 88.7239 15.5174C88.0279 15.5174 87.4295 14.9518 87.4295 14.1525Z" fill="white"/>
<path d="M98.5782 18.3332C98.3706 18.2594 98.1508 18.2348 97.931 18.2348C96.368 18.2348 95.269 19.821 95.269 22.563C95.269 25.305 96.4657 26.7805 98.2485 26.7805C99.2375 26.7805 100.031 26.2887 100.617 25.4034L100.959 25.6124C100.288 27.1371 99.1032 28.0101 97.3693 28.0101C94.8783 28.0101 92.9978 26.0919 92.9978 22.8212C92.9978 19.5505 95.1347 17.5708 97.6745 17.5708C99.4207 17.5708 100.715 18.7512 100.971 20.3374C100.825 20.9276 100.507 21.1981 100.019 21.1981C99.3963 21.1981 98.9323 20.8169 98.8346 19.7841L98.5904 18.3454L98.5782 18.3332Z" fill="white"/>
<path d="M106.43 20.3006C106.955 18.53 108.054 17.5586 109.043 17.5586C109.739 17.5586 110.325 17.866 110.52 18.739C110.471 19.5628 110.154 20.1408 109.385 20.1408C108.847 20.1408 108.493 19.7842 108.09 19.2554L107.907 19.0341C107.211 19.6366 106.771 20.4482 106.43 21.7392V23.3746C106.43 24.3706 106.442 25.8584 106.466 26.9036L107.98 27.1249V27.6905H103.023V27.1249L104.219 26.965C104.232 25.9199 104.256 24.3829 104.256 23.3746V22.0466C104.256 20.8539 104.244 20.1899 104.195 19.3046L102.901 19.1571V18.6898L106.063 17.5709L106.295 17.7307L106.442 20.2883L106.43 20.3006Z" fill="white"/>
<path d="M111.79 22.7475C111.79 19.4522 113.829 17.5586 116.235 17.5586C118.641 17.5586 120.68 19.4399 120.68 22.7475C120.68 26.0551 118.75 27.9979 116.235 27.9979C113.72 27.9979 111.79 26.0428 111.79 22.7475ZM118.36 22.7721C118.36 19.735 117.566 18.2472 116.235 18.2472C114.904 18.2472 114.11 19.735 114.11 22.7721C114.11 25.8092 114.867 27.3216 116.235 27.3216C117.603 27.3216 118.36 25.8338 118.36 22.7721Z" fill="white"/>
<path d="M138.385 24.0016L138.336 27.7027H128.812V27.0633L130.375 26.9034C130.412 25.0836 130.412 23.2269 130.412 21.3456V20.448C130.412 18.6036 130.412 16.7469 130.375 14.8902L128.812 14.7304V14.0664H138.007V17.6691H137.14L136.517 14.8411H132.744C132.695 16.6486 132.695 18.4807 132.695 20.4234H135.162L135.406 18.4192H136.175V23.0548H135.406L135.174 21.1243H132.695C132.695 23.2023 132.695 25.0959 132.744 26.9772H136.847L137.482 24.0385H138.385V24.0016Z" fill="white"/>
<path d="M145.175 27.1249V27.6905H140.4V27.1249L141.67 26.9651C141.707 25.8092 141.719 24.5305 141.719 23.3746V14.042L140.388 13.9313V13.4149L143.697 12.6279L143.929 12.7878L143.868 15.7142V23.3746C143.868 24.5305 143.88 25.8092 143.917 26.9774L145.187 27.1249H145.175Z" fill="white"/>
<path d="M149.436 22.723C149.497 25.5388 150.755 26.7684 152.342 26.7684C153.527 26.7684 154.235 26.2151 154.809 25.3543L155.139 25.6126C154.479 27.125 153.234 27.9857 151.598 27.9857C149.009 27.9857 147.141 26.1044 147.141 22.7599C147.141 19.4154 149.314 17.5464 151.61 17.5464C153.905 17.5464 155.224 19.2555 155.224 21.5795C155.224 22.059 155.188 22.4033 155.114 22.723H149.424H149.436ZM152.245 22.0467C153.002 22.0467 153.185 21.6287 153.185 20.6819C153.185 19.194 152.477 18.235 151.475 18.235C150.474 18.235 149.534 19.3539 149.436 22.0467H152.245Z" fill="white"/>
<path d="M162.954 18.3332C162.746 18.2594 162.526 18.2348 162.306 18.2348C160.743 18.2348 159.645 19.821 159.645 22.563C159.645 25.305 160.841 26.7805 162.624 26.7805C163.613 26.7805 164.407 26.2887 164.993 25.4034L165.335 25.6124C164.663 27.1371 163.479 28.0101 161.745 28.0101C159.266 28.0101 157.373 26.0919 157.373 22.8212C157.373 19.5505 159.51 17.5708 162.05 17.5708C163.796 17.5708 165.091 18.7512 165.335 20.3374C165.188 20.9276 164.871 21.1981 164.382 21.1981C163.76 21.1981 163.296 20.8169 163.198 19.7841L162.954 18.3454V18.3332Z" fill="white"/>
<path d="M173.064 26.6821C172.588 27.506 171.819 27.9855 170.695 27.9855C169.181 27.9855 168.339 27.1617 168.339 25.2804C168.339 24.6902 168.351 24.1737 168.351 23.436V18.616H166.934V18.0135L168.461 17.829L169.169 14.9395H170.585L170.537 17.8413H172.71V18.616H170.524V25.4279C170.524 26.4608 170.939 26.8789 171.599 26.8789C172.026 26.8789 172.319 26.6944 172.771 26.3255L173.064 26.6821Z" fill="white"/>
<path d="M177.912 20.3006C178.437 18.53 179.536 17.5586 180.525 17.5586C181.221 17.5586 181.807 17.866 182.002 18.739C181.954 19.5628 181.636 20.1408 180.867 20.1408C180.329 20.1408 179.975 19.7842 179.56 19.2554L179.377 19.0341C178.681 19.6366 178.241 20.4482 177.9 21.7392V23.3746C177.9 24.3706 177.912 25.8584 177.936 26.9036L179.45 27.1249V27.6905H174.493V27.1249L175.689 26.965C175.702 25.9199 175.726 24.3829 175.726 23.3746V22.0466C175.726 20.8539 175.714 20.1899 175.665 19.3046L174.371 19.1571V18.6898L177.533 17.5709L177.765 17.7307L177.912 20.2883V20.3006Z" fill="white"/>
<path d="M188.059 27.1248V27.6904H183.541V27.1248L184.738 26.965C184.75 25.9198 184.774 24.3828 184.774 23.3745V22.0712C184.774 20.8907 184.762 20.1899 184.726 19.2677L183.395 19.1201V18.616L186.728 17.5708L186.96 17.7307L186.923 20.6079V23.3745C186.923 24.3828 186.936 25.9321 186.96 26.9773L188.059 27.1248ZM184.493 14.1525C184.493 13.3287 185.08 12.7754 185.788 12.7754C186.496 12.7754 187.082 13.3287 187.082 14.1525C187.082 14.9764 186.484 15.5174 185.788 15.5174C185.092 15.5174 184.493 14.9518 184.493 14.1525Z" fill="white"/>
<path d="M195.642 18.3332C195.434 18.2594 195.215 18.2348 194.995 18.2348C193.432 18.2348 192.333 19.821 192.333 22.563C192.333 25.305 193.529 26.7805 195.312 26.7805C196.301 26.7805 197.083 26.2887 197.681 25.4034L198.023 25.6124C197.351 27.1371 196.167 28.0101 194.433 28.0101C191.954 28.0101 190.062 26.0919 190.062 22.8212C190.062 19.5505 192.198 17.5708 194.738 17.5708C196.484 17.5708 197.779 18.7512 198.023 20.3374C197.876 20.9276 197.559 21.1981 197.071 21.1981C196.448 21.1981 195.984 20.8169 195.886 19.7841L195.642 18.3454V18.3332Z" fill="white"/>
<path d="M204.641 27.1248V27.6904H200.111V27.1248L201.308 26.965C201.32 25.9198 201.344 24.3828 201.344 23.3745V22.0712C201.344 20.8907 201.332 20.1899 201.296 19.2677L199.965 19.1201V18.616L203.31 17.5708L203.542 17.7307L203.506 20.6079V23.3745C203.506 24.3828 203.518 25.9321 203.542 26.9773L204.641 27.1248ZM201.076 14.1525C201.076 13.3287 201.674 12.7754 202.37 12.7754C203.066 12.7754 203.677 13.3287 203.677 14.1525C203.677 14.9764 203.078 15.5174 202.37 15.5174C201.662 15.5174 201.076 14.9518 201.076 14.1525Z" fill="white"/>
<path d="M212.322 26.6821C211.846 27.506 211.076 27.9855 209.953 27.9855C208.439 27.9855 207.596 27.1617 207.596 25.2804C207.596 24.6902 207.609 24.1737 207.609 23.436V18.616H206.192V18.0135L207.718 17.829L208.427 14.9395H209.843L209.794 17.8413H211.968V18.616H209.782V25.4279C209.782 26.4608 210.197 26.8789 210.844 26.8789C211.272 26.8789 211.565 26.6944 212.017 26.3255L212.31 26.6821H212.322Z" fill="white"/>
<path d="M222.75 18.4193L221.676 18.5792L218.305 28.5881C217.267 31.6621 215.936 32.6704 214.813 32.6704C213.946 32.6704 213.116 32.1171 213.104 31.3424C213.201 30.6415 213.8 30.3095 214.373 30.3095C214.984 30.3095 215.387 30.6538 215.814 31.2071L216.046 31.5023C216.755 30.8629 217.243 29.8792 217.744 28.5266L214.056 18.5177L213.091 18.407V17.8414H217.768V18.407L216.413 18.5669L218.733 25.6494L220.87 18.5792L219.319 18.3947V17.8291H222.738V18.3947L222.75 18.4193Z" fill="white"/>
<path d="M74.4128 41.1671V41.4991C74.2053 41.5729 73.9733 41.6098 73.668 41.6098C73.0452 41.6098 72.7766 41.4131 72.6667 40.8966L72.3248 39.3596C72.1661 38.5727 71.8974 38.3268 71.1648 38.3268H70.7008C70.7008 39.2736 70.7008 40.1712 70.7008 41.0688L71.5311 41.1671V41.4991H68.918V41.1671L69.7361 41.0688C69.7483 40.1712 69.7483 39.2613 69.7483 38.3514V37.8841C69.7483 36.9865 69.7483 36.0643 69.7361 35.1667L68.918 35.0683V34.7363H71.5555C72.9353 34.7363 73.729 35.388 73.729 36.4947C73.729 37.2816 73.2406 37.9825 72.1294 38.1915C72.8376 38.3268 73.1307 38.7202 73.3139 39.5318L73.7046 41.1057L74.4251 41.1794L74.4128 41.1671ZM71.3846 37.9579C72.3248 37.9579 72.7766 37.3185 72.7766 36.4824C72.7766 35.6462 72.3492 35.1052 71.4212 35.1052H70.7008C70.7008 36.0028 70.7008 36.9127 70.7008 37.9702H71.3846V37.9579Z" fill="white"/>
<path d="M75.9271 39.0398C75.9515 40.417 76.5742 41.0441 77.4168 41.0441C78.0029 41.0441 78.357 40.7735 78.6745 40.3309L78.8332 40.4539C78.5035 41.1793 77.9052 41.622 77.1115 41.622C75.866 41.622 74.9868 40.6875 74.9868 39.0767C74.9868 37.4659 76.0125 36.5068 77.1237 36.5068C78.1616 36.5068 78.8577 37.2938 78.8577 38.4619C78.8577 38.6955 78.8454 38.88 78.7966 39.0275H75.9148L75.9271 39.0398ZM77.5511 38.6832C77.9296 38.6832 78.0151 38.4742 78.0151 38.0807C78.0151 37.4044 77.6244 36.8757 77.0749 36.8757C76.5254 36.8757 76.0003 37.4167 75.9393 38.6832H77.5511Z" fill="white"/>
<path d="M84.7433 41.2037V41.4988H82.5941V41.2037L83.2413 41.1054C83.2413 40.5889 83.2535 39.8758 83.2535 39.3716V38.3265C83.2535 37.4657 83.0215 37.1706 82.5331 37.1706C82.179 37.1706 81.7882 37.3674 81.3364 37.8223V39.3716C81.3364 39.8635 81.3364 40.5889 81.3486 41.1054L81.947 41.2037V41.4988H79.7979V41.2037L80.445 41.1054C80.4572 40.5766 80.4695 39.8389 80.4695 39.3716V38.7814C80.4695 38.2035 80.4573 37.8469 80.4328 37.4289L79.7368 37.3551V37.0846L81.1289 36.5435L81.251 36.6296L81.312 37.4534C81.8004 36.8386 82.3621 36.5312 82.9116 36.5312C83.6809 36.5312 84.1083 37.06 84.1083 38.3388V39.3716C84.1083 39.8758 84.1083 40.5889 84.1205 41.1054L84.7188 41.2037H84.7433Z" fill="white"/>
<path d="M86.5137 39.0398C86.5381 40.417 87.1609 41.0441 88.0034 41.0441C88.5896 41.0441 88.9437 40.7735 89.2612 40.3309L89.4199 40.4539C89.0902 41.1793 88.4919 41.622 87.6982 41.622C86.4527 41.622 85.5735 40.6875 85.5735 39.0767C85.5735 37.4659 86.587 36.5068 87.7104 36.5068C88.7605 36.5068 89.4443 37.2938 89.4443 38.4619C89.4443 38.6955 89.4321 38.88 89.3833 39.0275H86.5015L86.5137 39.0398ZM88.1378 38.6832C88.5163 38.6832 88.6018 38.4742 88.6018 38.0807C88.6018 37.4044 88.211 36.8757 87.6615 36.8757C87.1121 36.8757 86.587 37.4167 86.5259 38.6832H88.1378Z" fill="white"/>
<path d="M96.9419 36.9742L96.4168 37.0848L95.0492 41.5483H94.6829C93.9868 39.4949 93.706 38.5849 93.5106 37.8595L92.314 41.5483H91.9354L90.4701 37.0479L89.9817 36.9619V36.6422H92.1064V36.9619L91.4104 37.0479L92.375 40.3802L93.4129 37.0479L92.7413 36.9496V36.6299H94.7317V36.9496L94.0479 37.0602L95.1224 40.3556L96.0138 37.0725L95.2812 36.9496V36.6299H96.9419V36.9496V36.9742Z" fill="white"/>
<path d="M101.68 41.0564C101.484 41.4744 101.216 41.622 100.849 41.622C100.385 41.622 100.092 41.3146 100.007 40.8227C99.5304 41.3638 99.213 41.6466 98.639 41.6466C97.9674 41.6466 97.4546 41.2039 97.4546 40.417C97.4546 39.7407 97.7965 39.2857 99.0054 38.8185C99.2862 38.7324 99.6525 38.6095 99.9944 38.5111V38.1299C99.9944 37.1462 99.7502 36.8757 99.1397 36.8757C98.9932 36.8757 98.8344 36.9003 98.6513 36.9495L98.5169 37.6258C98.4559 38.0069 98.2727 38.1914 98.0285 38.1914C97.7843 38.1914 97.6255 38.0561 97.5889 37.7856C97.7354 36.9987 98.3948 36.5068 99.4083 36.5068C100.422 36.5068 100.861 36.9987 100.861 38.2652V40.5276C100.861 40.9826 100.984 41.1301 101.167 41.1301C101.313 41.1301 101.411 41.0564 101.545 40.8719L101.692 41.0318L101.68 41.0564ZM99.9822 38.8062C99.6892 38.9046 99.4083 39.0029 99.2374 39.0767C98.5169 39.3964 98.3216 39.8022 98.3216 40.2571C98.3216 40.7981 98.6146 41.0441 99.0176 41.0441C99.3106 41.0441 99.5182 40.9211 99.9822 40.503V38.8062Z" fill="white"/>
<path d="M103.755 37.2446C104.171 36.7405 104.647 36.5191 105.147 36.5191C106.149 36.5191 106.894 37.4413 106.894 39.0398C106.894 40.6383 106.149 41.6343 105.038 41.6343C104.598 41.6343 104.146 41.4744 103.743 40.9334L103.645 41.5974L102.229 41.499V41.2039L102.876 41.0932C102.876 40.5768 102.888 39.839 102.888 39.3595V34.7608L102.18 34.687V34.4042L103.658 34.0107L103.768 34.0845L103.743 35.5231V37.2446H103.755ZM103.768 40.6014C104.097 40.9457 104.439 41.0932 104.769 41.0932C105.404 41.0932 105.953 40.5645 105.953 39.0767C105.953 37.6995 105.477 37.0479 104.806 37.0479C104.512 37.0479 104.207 37.1216 103.78 37.552V40.6014H103.768Z" fill="white"/>
<path d="M109.958 41.2038V41.4989H107.675V41.2038L108.371 41.1054C108.371 40.5398 108.383 39.925 108.383 39.3717V34.773L107.675 34.6992V34.4164L109.165 34.0229L109.287 34.0967L109.25 35.5354V39.3717C109.25 39.9373 109.25 40.5398 109.262 41.1054L109.946 41.2038H109.958Z" fill="white"/>
<path d="M111.717 39.0398C111.741 40.417 112.364 41.0441 113.207 41.0441C113.793 41.0441 114.147 40.7735 114.464 40.3309L114.623 40.4539C114.293 41.1793 113.695 41.622 112.901 41.622C111.656 41.622 110.777 40.6875 110.777 39.0767C110.777 37.4659 111.802 36.5068 112.914 36.5068C113.964 36.5068 114.647 37.2938 114.647 38.4619C114.647 38.6955 114.635 38.88 114.586 39.0275H111.705L111.717 39.0398ZM113.341 38.6832C113.719 38.6832 113.805 38.4742 113.805 38.0807C113.805 37.4044 113.414 36.8757 112.865 36.8757C112.315 36.8757 111.79 37.4167 111.729 38.6832H113.341Z" fill="white"/>
<path d="M119.739 35.1298C119.739 36.0151 119.739 36.9127 119.739 37.8595H121.095L121.205 36.8635H121.583V39.2858H121.205L121.095 38.2407H119.739C119.739 39.249 119.739 40.1589 119.739 41.0688L120.619 41.1671V41.4991H117.944V41.1671L118.762 41.0688C118.775 40.1712 118.775 39.2613 118.775 38.3514V37.8841C118.775 36.9865 118.775 36.0643 118.762 35.1667L117.944 35.0683V34.7363H122.487L122.523 36.507H122.084L121.827 35.1421H119.752L119.739 35.1298Z" fill="white"/>
<path d="M127.896 41.2039V41.4991L126.504 41.5974L126.443 40.6629C126.016 41.2654 125.442 41.6343 124.868 41.6343C124.099 41.6343 123.635 41.1425 123.647 39.7899L123.671 37.1832L123.036 37.0479V36.7651L124.477 36.5807L124.563 36.679L124.526 38.1177V39.7776C124.526 40.6506 124.783 40.9457 125.259 40.9457C125.674 40.9457 126.077 40.7121 126.431 40.3186V37.1709L125.82 37.0356V36.7651L127.249 36.5684L127.335 36.6667L127.31 38.1054V41.1056L127.908 41.1917L127.896 41.2039Z" fill="white"/>
<path d="M131.413 41.0563C131.181 41.4252 130.815 41.6342 130.314 41.6342C129.618 41.6342 129.239 41.2408 129.239 40.3923C129.239 40.1218 129.239 39.8759 129.239 39.4947V37.0724H128.495V36.7404L129.288 36.6421L129.569 35.228H130.155L130.119 36.6544H131.279V37.0724H130.106V40.3923C130.106 40.9211 130.314 41.1424 130.644 41.1424C130.851 41.1424 131.01 41.0563 131.242 40.8596L131.401 41.0686L131.413 41.0563Z" fill="white"/>
<path d="M136.761 41.2039V41.4991L135.369 41.5974L135.308 40.6629C134.881 41.2654 134.307 41.6343 133.733 41.6343C132.964 41.6343 132.5 41.1425 132.512 39.7899L132.536 37.1832L131.901 37.0479V36.7651L133.342 36.5807L133.428 36.679L133.391 38.1177V39.7776C133.391 40.6506 133.648 40.9457 134.124 40.9457C134.539 40.9457 134.942 40.7121 135.296 40.3186V37.1709L134.685 37.0356V36.7651L136.114 36.5684L136.2 36.6667L136.175 38.1054V41.1056L136.773 41.1917L136.761 41.2039Z" fill="white"/>
<path d="M139.13 37.8839C139.399 37.0232 139.936 36.519 140.449 36.519C140.754 36.519 141.047 36.6543 141.145 36.974C141.145 37.3921 140.986 37.6749 140.62 37.6749C140.376 37.6749 140.205 37.5273 140.022 37.3183L139.912 37.1953C139.545 37.5027 139.313 37.9331 139.142 38.5848V39.3594C139.142 39.839 139.142 40.5521 139.155 41.0686L139.924 41.2038V41.4989H137.616V41.2038L138.251 41.1054C138.263 40.5767 138.275 39.839 138.275 39.3717V38.7815C138.275 38.2036 138.263 37.847 138.239 37.4289L137.543 37.3552V37.0847L138.935 36.5436L139.057 36.6297L139.142 37.8839H139.13Z" fill="white"/>
<path d="M142.574 39.0398C142.598 40.417 143.209 41.0441 144.064 41.0441C144.65 41.0441 145.004 40.7735 145.321 40.3309L145.48 40.4539C145.15 41.1793 144.552 41.622 143.758 41.622C142.513 41.622 141.634 40.6875 141.634 39.0767C141.634 37.4659 142.647 36.5068 143.77 36.5068C144.821 36.5068 145.504 37.2938 145.504 38.4619C145.504 38.6955 145.492 38.88 145.443 39.0275H142.562L142.574 39.0398ZM144.198 38.6832C144.576 38.6832 144.662 38.4742 144.662 38.0807C144.662 37.4044 144.271 36.8757 143.722 36.8757C143.172 36.8757 142.647 37.4167 142.586 38.6832H144.198Z" fill="white"/>
<path d="M151.427 34.7236C153.246 34.7236 154.418 35.9532 154.418 38.105C154.418 40.2568 153.148 41.4987 151.256 41.4987H148.789V41.1667L149.607 41.0684C149.619 40.1708 149.619 39.2486 149.619 38.228V37.896C149.619 36.9738 149.619 36.0516 149.607 35.154L148.789 35.0556V34.7236H151.427ZM151.219 41.1176C152.623 41.1176 153.38 40.0109 153.38 38.1173C153.38 36.2237 152.611 35.1048 151.28 35.1048H150.584C150.584 36.0147 150.584 36.9369 150.584 37.896V38.2157C150.584 39.2486 150.584 40.1954 150.584 41.1176H151.219Z" fill="white"/>
<path d="M156.347 39.0398C156.372 40.417 156.995 41.0441 157.837 41.0441C158.423 41.0441 158.79 40.7735 159.095 40.3309L159.254 40.4539C158.924 41.1793 158.326 41.622 157.532 41.622C156.286 41.622 155.407 40.6875 155.407 39.0767C155.407 37.4659 156.433 36.5068 157.544 36.5068C158.594 36.5068 159.278 37.2938 159.278 38.4619C159.278 38.6955 159.266 38.88 159.217 39.0275H156.335L156.347 39.0398ZM157.971 38.6832C158.35 38.6832 158.436 38.4742 158.436 38.0807C158.436 37.4044 158.045 36.8757 157.483 36.8757C156.921 36.8757 156.409 37.4167 156.347 38.6832H157.959H157.971Z" fill="white"/>
<path d="M164.395 36.9741L163.845 37.097L162.343 41.5605H161.928L160.304 37.0602L159.791 36.9741V36.6544H162.026V36.9741L161.293 37.0725L162.416 40.4539L163.466 37.0847L162.758 36.9618V36.6421H164.407V36.9618L164.395 36.9741Z" fill="white"/>
<path d="M165.774 39.0398C165.799 40.417 166.421 41.0441 167.264 41.0441C167.85 41.0441 168.204 40.7735 168.522 40.3309L168.693 40.4539C168.363 41.1793 167.765 41.622 166.971 41.622C165.725 41.622 164.846 40.6875 164.846 39.0767C164.846 37.4659 165.872 36.5068 166.983 36.5068C168.033 36.5068 168.717 37.2938 168.717 38.4619C168.717 38.6955 168.705 38.88 168.656 39.0275H165.774V39.0398ZM167.398 38.6832C167.777 38.6832 167.862 38.4742 167.862 38.0807C167.862 37.4044 167.472 36.8757 166.922 36.8757C166.373 36.8757 165.847 37.4167 165.786 38.6832H167.398Z" fill="white"/>
<path d="M171.733 41.2038V41.4989H169.45V41.2038L170.146 41.1054C170.146 40.5398 170.158 39.925 170.158 39.3717V34.773L169.45 34.6992V34.4164L170.939 34.0229L171.062 34.0967L171.025 35.5354V39.3717C171.025 39.9373 171.025 40.5398 171.037 41.1054L171.721 41.2038H171.733Z" fill="white"/>
<path d="M172.563 39.0766C172.563 37.4167 173.589 36.519 174.7 36.519C175.812 36.519 176.837 37.4044 176.837 39.0766C176.837 40.7489 175.836 41.6342 174.7 41.6342C173.565 41.6342 172.563 40.7366 172.563 39.0766ZM175.885 39.0766C175.885 37.6257 175.445 36.8633 174.713 36.8633C173.98 36.8633 173.54 37.6134 173.54 39.0766C173.54 40.5398 173.968 41.253 174.713 41.253C175.457 41.253 175.885 40.5152 175.885 39.0766Z" fill="white"/>
<path d="M179.194 37.2568C179.609 36.7404 180.085 36.519 180.586 36.519C181.575 36.519 182.332 37.4535 182.332 39.052C182.332 40.6505 181.514 41.6342 180.44 41.6342C180.024 41.6342 179.597 41.4743 179.219 40.9702V41.708C179.219 42.249 179.219 42.8761 179.231 43.4909L180.012 43.6138V43.9089H177.668V43.6138L178.327 43.5032C178.339 42.9007 178.352 42.2859 178.352 41.7203V38.7815C178.352 38.2036 178.352 37.847 178.315 37.4167L177.619 37.3429V37.0724L179.011 36.5313L179.121 36.6174L179.182 37.2568H179.194ZM179.231 40.6628C179.548 40.9702 179.841 41.0932 180.171 41.0932C180.867 41.0932 181.392 40.5398 181.392 39.1012C181.392 37.6626 180.928 37.0478 180.244 37.0478C179.988 37.0478 179.67 37.1338 179.243 37.5519V40.6628H179.231Z" fill="white"/>
<path d="M190.855 41.2037V41.4988H188.719V41.2037L189.341 41.1054C189.341 40.5889 189.353 39.8758 189.353 39.3716V38.3388C189.353 37.4412 189.134 37.1583 188.645 37.1583C188.291 37.1583 187.925 37.3551 187.485 37.8223C187.497 37.9822 187.51 38.142 187.51 38.3265V39.3593C187.51 39.8635 187.51 40.5766 187.522 41.0931L188.12 41.1914V41.4865H185.983V41.1914L186.618 41.0931C186.618 40.5766 186.63 39.8635 186.63 39.3593V38.3388C186.63 37.4535 186.423 37.1583 185.934 37.1583C185.556 37.1583 185.19 37.3797 184.787 37.8346V39.3716C184.787 39.8635 184.787 40.5889 184.799 41.1054L185.397 41.2037V41.4988H183.248V41.2037L183.895 41.1054C183.907 40.5766 183.92 39.8389 183.92 39.3716V38.7814C183.92 38.2035 183.907 37.8469 183.883 37.4289L183.187 37.3551V37.0846L184.579 36.5435L184.701 36.6296L184.762 37.4534C185.226 36.8509 185.763 36.5312 186.313 36.5312C186.887 36.5312 187.265 36.8264 187.424 37.478C187.925 36.8018 188.462 36.5312 189.036 36.5312C189.817 36.5312 190.233 37.06 190.233 38.3019V39.3839C190.233 39.8881 190.233 40.6012 190.245 41.1177L190.843 41.216L190.855 41.2037Z" fill="white"/>
<path d="M192.614 39.0398C192.638 40.417 193.261 41.0441 194.103 41.0441C194.689 41.0441 195.044 40.7735 195.361 40.3309L195.52 40.4539C195.19 41.1793 194.592 41.622 193.798 41.622C192.553 41.622 191.673 40.6875 191.673 39.0767C191.673 37.4659 192.699 36.5068 193.81 36.5068C194.86 36.5068 195.544 37.2938 195.544 38.4619C195.544 38.6955 195.532 38.88 195.483 39.0275H192.601L192.614 39.0398ZM194.238 38.6832C194.616 38.6832 194.702 38.4742 194.702 38.0807C194.702 37.4044 194.311 36.8757 193.761 36.8757C193.212 36.8757 192.687 37.4167 192.626 38.6832H194.238Z" fill="white"/>
<path d="M201.43 41.2037V41.4988H199.281V41.2037L199.928 41.1054C199.928 40.5889 199.94 39.8758 199.94 39.3716V38.3265C199.94 37.4657 199.708 37.1706 199.22 37.1706C198.866 37.1706 198.475 37.3674 198.023 37.8223V39.3716C198.023 39.8635 198.023 40.5889 198.035 41.1054L198.634 41.2037V41.4988H196.485V41.2037L197.12 41.1054C197.132 40.5766 197.144 39.8389 197.144 39.3716V38.7814C197.144 38.2035 197.132 37.8469 197.107 37.4289L196.411 37.3551V37.0846L197.803 36.5435L197.926 36.6296L197.987 37.4534C198.475 36.8386 199.037 36.5312 199.586 36.5312C200.355 36.5312 200.783 37.06 200.783 38.3388V39.3716C200.783 39.8758 200.783 40.5889 200.795 41.1054L201.393 41.2037H201.43Z" fill="white"/>
<path d="M204.873 41.0563C204.641 41.4252 204.275 41.6342 203.774 41.6342C203.078 41.6342 202.7 41.2408 202.7 40.3923C202.7 40.1218 202.7 39.8759 202.7 39.4947V37.0724H201.955V36.7404L202.749 36.6421L203.03 35.228H203.628L203.591 36.6544H204.751V37.0724H203.579V40.3923C203.579 40.9211 203.787 41.1424 204.116 41.1424C204.324 41.1424 204.483 41.0563 204.715 40.8596L204.873 41.0686V41.0563Z" fill="white"/>
</g>
<defs>
<clipPath id="clip0_174_667">
<rect width="222.75" height="55" fill="white"/>
</clipPath>
</defs>
</svg>
