<svg width="174" height="55" viewBox="0 0 174 55" fill="none" xmlns="http://www.w3.org/2000/svg">
<g clip-path="url(#clip0_766_2490)">
<g clip-path="url(#clip1_766_2490)">
<path d="M26.104 53.2756C26.8695 53.0669 27.6251 52.6195 28.341 51.8539L39.9633 39.3865C37.6865 40.7088 35.4496 41.8124 33.3021 42.7569C31.5821 43.5423 29.8223 44.2681 28.4106 44.6757C25.3385 47.549 22.1868 49.955 19.413 51.0486C20.9739 51.7744 22.3161 52.3809 23.3799 52.8481C24.215 53.1762 25.2788 53.4844 26.0941 53.2657" fill="#009CCD"/>
<path d="M-1.83331 39.5754C3.60501 42.9259 8.68542 45.7197 13.0102 47.9268C13.0102 47.9268 19.4925 47.7976 28.4105 44.6857C28.331 44.7056 28.2415 44.7354 28.152 44.7553C27.814 44.8447 27.3269 44.8845 26.7303 44.8845C19.9598 44.8845 -1.83331 39.5754 -1.83331 39.5754" fill="#76B5D5"/>
<path d="M28.4106 44.6857C19.4925 47.7975 13.0301 47.9268 13.0103 47.9268C15.4063 49.1497 17.5637 50.1936 19.413 51.0586C22.1868 49.955 25.3285 47.5589 28.4106 44.6857" fill="#55A5CE"/>
<path d="M28.4106 44.6857C19.4925 47.7975 13.0301 47.9268 13.0103 47.9268C13.0103 47.9268 19.4925 47.7975 28.4106 44.6857Z" fill="#1EA4D0"/>
<path d="M5.96131 15.5057C5.75252 16.2712 5.76246 17.156 6.07067 18.1602L11.0517 34.4553C11.0517 31.8206 11.2008 29.3351 11.4593 26.9987C11.6382 25.1197 11.8868 23.2307 12.2447 21.799C11.3002 17.6929 10.7932 13.7658 11.2207 10.813C9.8089 11.8072 8.61584 12.6622 7.68129 13.3582C6.9754 13.9149 6.18003 14.6805 5.96131 15.4957" fill="#009CCD"/>
<path d="M17.1362 6.84606C14.8793 8.30755 12.8909 9.65967 11.2207 10.8229C11.1113 11.5487 11.0616 12.3341 11.0616 13.1692C11.0616 15.7144 11.5289 18.7169 12.2348 21.799C12.6324 19.7012 13.0997 17.7824 13.5968 16.0823C14.9291 11.4095 16.3905 8.30755 16.9274 7.24375C16.9274 7.24375 16.9672 7.15427 16.9871 7.1145C16.9871 7.1145 17.007 7.06479 17.0169 7.0449V7.02502C17.0169 7.02502 17.0169 7.00514 17.0268 7.00514C17.0268 7.00514 17.0467 6.97531 17.0467 6.95543C17.0666 6.9256 17.0766 6.89577 17.0865 6.87589V6.856V6.83612" fill="#55A5CE"/>
<path d="M16.9374 7.24377C16.4005 8.30757 14.939 11.3996 13.6068 16.0723C14.939 11.4095 16.4005 8.30757 16.9374 7.24377ZM16.997 7.11452C16.997 7.11452 16.9572 7.19405 16.9374 7.23382C16.9572 7.19405 16.9771 7.15429 16.997 7.11452ZM17.0368 7.04492C17.0368 7.04492 17.0169 7.08469 17.0069 7.10458C17.0169 7.08469 17.0268 7.05487 17.0368 7.04492ZM17.0467 7.00516C17.0467 7.00516 17.0467 7.02504 17.0368 7.02504C17.0368 7.02504 17.0368 7.00516 17.0467 7.00516ZM17.0666 6.95544C17.0666 6.95544 17.0567 6.98527 17.0467 6.99521L17.0666 6.95544Z" fill="#1EA4D0"/>
<path d="M48.6228 17.5239C48.066 16.9572 47.3005 16.5297 46.2765 16.2911L29.6732 12.4534C31.9499 13.7658 34.0377 15.1477 35.9267 16.5297C37.4678 17.6233 38.979 18.7865 40.0328 19.8006C44.0594 21.0335 47.7081 22.5546 50.0544 24.4038C49.9053 22.6838 49.7562 21.2323 49.6269 20.0691C49.4977 19.1842 49.2293 18.1105 48.6327 17.504" fill="#009CCD"/>
<path d="M40.0328 19.8105C47.1911 25.9846 50.5317 31.5124 50.5416 31.5323C50.4024 28.838 50.2235 26.4519 50.0545 24.4137C47.7181 22.5645 44.0594 21.0434 40.0328 19.8105" fill="#55A5CE"/>
<path d="M40.0328 19.8105L40.2217 19.9994C43.274 23.0517 50.7305 48.5631 50.7305 48.5631C50.9194 42.1803 50.7902 36.3741 50.5416 31.5323C50.4323 31.3434 47.0718 25.8951 40.0328 19.8105" fill="#76B5D5"/>
<path d="M31.7909 -1.83337C26.1636 1.18902 21.2125 4.21142 17.1362 6.84607V6.86596V6.88584C17.1362 6.88584 17.1163 6.93555 17.0965 6.97532L17.0766 7.01509C17.0766 7.01509 17.0766 7.03497 17.0666 7.04492V7.0648C17.0666 7.0648 17.0467 7.10457 17.0269 7.12445C17.0269 7.12445 16.9871 7.20399 16.9672 7.2537C16.4303 8.31751 14.9688 11.4194 13.6366 16.0823C13.1494 17.8023 12.6822 19.7111 12.2745 21.8189C12.2944 21.7294 12.3143 21.6399 12.3441 21.5604C13.4278 17.3847 31.7909 -1.83337 31.7909 -1.83337Z" fill="#76B5D5"/>
</g>
<g clip-path="url(#clip2_766_2490)">
<path d="M85.9131 25.5117C86.8883 23.1957 87.5496 20.3157 87.9905 16.4671H89.1107V15.1735H84.4852C84.7731 14.0853 85.0234 12.8516 85.2478 11.4106L85.2736 11.2451L83.9668 11.0159L83.943 11.1913C83.4147 14.9164 82.4832 17.8841 81.2539 19.7736L81.1645 19.9111L81.2956 20.0068C81.3194 20.0247 81.3452 20.0427 81.373 20.0646H74.0485V21.3163H81.4128V20.0985C81.6253 20.2719 81.8954 20.529 82.0205 20.6745L82.1714 20.8499L82.2926 20.6526C82.5349 20.2579 82.7692 19.8234 83.0135 19.3092C83.3968 21.7567 83.9013 23.7698 84.5507 25.444C83.6391 27.4052 82.4554 28.896 80.9282 30.0042L80.7474 30.1357L80.9202 30.2752C81.1228 30.4387 81.4565 30.8154 81.5756 30.9947L81.6789 31.1482L81.8239 31.0326C83.1823 29.9444 84.2905 28.605 85.2021 26.9468C86.0402 28.6369 87.0194 29.8985 88.1891 30.7974L88.3421 30.915L88.4394 30.7476C88.5724 30.5204 88.8763 30.1855 89.1027 30.0181L89.2934 29.8786L89.1007 29.7411C87.7899 28.8103 86.7175 27.3872 85.9111 25.5117H85.9131ZM86.7036 16.4671C86.3779 19.4627 85.9092 21.7926 85.2379 23.7379C84.6341 21.8564 84.1833 19.6401 83.8973 17.1347C83.9668 16.9215 84.0363 16.6963 84.1078 16.4671H86.7036V16.4671Z" fill="#0D0D0D"/>
<path d="M81.3273 13.1625H80.1238V17.5533H78.6124V11.0657H77.389V17.5533H75.7446V13.1625H74.543V18.783H81.3273V13.1625Z" fill="#0D0D0D"/>
<path d="M69.9672 16.481L70.0704 16.6923L70.2373 16.5268C71.5123 15.2712 72.9204 13.3698 73.8261 11.6816L73.9174 11.5102L72.6444 11.0199L72.5768 11.1654C71.9433 12.5366 70.6841 14.2806 69.4409 15.5064L69.3257 15.62L69.4349 15.7415C69.6176 15.9448 69.8738 16.2916 69.9672 16.481V16.481Z" fill="#0D0D0D"/>
<path d="M74.3842 15.632L73.1528 15.2214L73.0912 15.3669C72.1181 17.6809 70.5948 20.0825 69.1152 21.6312L69 21.7528L69.1192 21.8703C69.3138 22.0637 69.6296 22.4842 69.7626 22.7015L69.8838 22.9008L70.0367 22.7254C70.5491 22.1374 71.0655 21.4677 71.5501 20.7662V30.9788H72.835V18.7213C73.4507 17.627 73.9333 16.6704 74.3107 15.8014L74.3842 15.63V15.632Z" fill="#0D0D0D"/>
<path d="M82.515 26.3767L82.4574 26.2432C82.368 26.0419 82.2449 25.729 82.1853 25.5097L82.1277 25.2965L80.2529 26.3847V21.9441H78.9858V26.4206C78.9858 27.1281 78.7177 27.4231 78.4933 27.5447L78.3324 27.6324L78.4317 27.7859C78.5747 28.0111 78.8031 28.4496 78.8607 28.6847L78.9421 29.0335L79.1606 28.7505C79.3473 28.5074 79.675 28.2144 82.3978 26.4525L82.519 26.3728L82.515 26.3767Z" fill="#0D0D0D"/>
<path d="M75.2103 22.1593C75.1666 25.729 74.8568 28.0629 73.409 29.4322L73.2541 29.5796L73.4328 29.6992C73.6771 29.8627 73.9611 30.1955 74.0763 30.3689L74.1875 30.5343L74.3345 30.3988C76.0266 28.8282 76.4099 26.1914 76.4993 22.1653L76.5033 21.9899H75.2123V22.1593H75.2103Z" fill="#0D0D0D"/>
<path d="M109.769 18.3465C110.431 18.1971 112.709 17.6549 114.262 16.9972L114.462 16.9115L113.716 15.9189L113.595 15.9668C112.629 16.3455 110.637 17.071 109.283 17.3879L109.047 17.4437L109.652 18.3744L109.767 18.3485L109.769 18.3465Z" fill="#0D0D0D"/>
<path d="M109.068 19.7975C110.739 20.0107 112.899 20.4991 114.097 20.9355L114.256 20.9933L114.673 19.8473L114.508 19.7895C113.324 19.3789 111.14 18.9205 109.428 18.7252L109.303 18.7112L108.84 19.7696L109.066 19.7995L109.068 19.7975Z" fill="#0D0D0D"/>
<path d="M100.977 15.9987L100.469 16.9593L100.689 17.0072C102.058 17.3041 104.018 17.8602 105.092 18.3784L105.251 18.4561L105.712 17.3779L105.557 17.3101C104.538 16.8657 102.622 16.3116 101.1 16.0246L100.977 16.0007V15.9987Z" fill="#0D0D0D"/>
<path d="M106.677 20.8598H108.03V15.6678H115.169V19.367H116.522V14.4839H108.03V13.1585H115.553V11.9746H99.2831V13.1585H106.677V14.4839H98.3557V19.367H99.7081V15.6678H106.677V20.8598Z" fill="#0D0D0D"/>
<path d="M100.665 20.7901C101.46 20.6546 102.338 20.4931 103.259 20.3217C103.962 20.1922 104.693 20.0566 105.43 19.9251L105.579 19.8992L105.519 18.7571L105.333 18.787C103.104 19.1438 101.436 19.3929 100.23 19.5444L100.006 19.5723L100.534 20.81L100.667 20.7881L100.665 20.7901Z" fill="#0D0D0D"/>
<path d="M116.345 26.7375L116.089 26.5501L116.075 26.867C115.966 29.2468 115.739 29.472 114.737 29.472H109.497C108.067 29.472 108.01 29.2727 108.01 28.7804V27.9353H114.862V21.4478H100.145V29.1651H101.498V27.9334H106.679V28.7784C106.679 30.4506 107.517 30.7217 109.521 30.7217H114.778C116.794 30.7217 117.169 29.9045 117.342 27.2756L117.352 27.1281L117.209 27.0963C116.899 27.0285 116.544 26.879 116.347 26.7355L116.345 26.7375ZM106.677 25.2506V26.7495H101.496V25.2506H106.677ZM106.677 22.6556V24.1106H101.496V22.6556H106.677ZM108.01 24.1106V22.6556H113.509V24.1106H108.01ZM108.01 26.7514V25.2526H113.509V26.7514H108.01Z" fill="#0D0D0D"/>
<path d="M133.246 12.6841L133.165 12.5865L132.025 13.0668L132.16 13.2422C132.663 13.8999 133.163 14.6414 133.65 15.3688L129.117 15.6857C130.059 14.6533 131.052 13.3199 132.073 11.7175L132.184 11.5421L130.816 10.998L130.744 11.1315C129.823 12.8336 128.329 14.6473 127.854 15.1257C127.439 15.61 127.127 15.8611 126.873 15.913L126.671 15.9548L126.75 16.1462C126.857 16.4013 127.028 16.9653 127.086 17.1826L127.135 17.3679L127.314 17.2962C127.719 17.1327 128.468 17.0391 134.359 16.5807C134.66 17.0809 134.905 17.5692 135.068 17.9977L135.135 18.1751L136.329 17.5632L136.267 17.4178C135.741 16.1741 134.472 14.181 133.246 12.6802V12.6841Z" fill="#0D0D0D"/>
<path d="M144.742 26.58L144.487 26.4066L144.478 26.7155C144.39 29.2747 144.207 29.5158 143.397 29.5158H139.215C138.08 29.5158 138.025 29.3544 138.025 28.8441V25.2486H144.428V23.9132H138.025V21.079H136.653V28.8422C136.653 30.5044 137.429 30.7854 139.171 30.7854H143.461C145.272 30.7854 145.614 29.9144 145.786 27.1221L145.794 26.9766L145.651 26.9447C145.387 26.8869 144.99 26.7474 144.742 26.578V26.58Z" fill="#0D0D0D"/>
<path d="M138.782 20.5987H143.264C144.197 20.5987 144.795 20.5688 145.089 20.509L145.268 20.4732L145.218 20.2958C145.151 20.0466 145.111 19.6261 145.093 19.3989L145.079 19.2056L144.889 19.2454C144.527 19.3231 143.802 19.3491 143.244 19.3491H138.78C138.164 19.3491 138.023 19.1876 138.023 18.4841V15.602H144.168V14.3105H138.023V11.0438H136.651V18.4382C136.651 20.0546 137.187 20.5987 138.78 20.5987H138.782Z" fill="#0D0D0D"/>
<path d="M127.342 24.4514C127.342 26.3149 127.177 28.4336 125.956 30.0141L125.841 30.1636L126.001 30.2633C126.188 30.3789 126.536 30.7257 126.651 30.9349L126.772 31.1602L126.933 30.9608C127.664 30.054 128.156 28.8701 128.42 27.3793L128.863 28.2283L129.014 28.1486C130.442 27.3972 132.013 26.5461 133.465 25.7349V29.47C133.465 29.6016 133.395 29.6673 133.256 29.6673C133.098 29.6793 132.72 29.6912 132.178 29.6912C131.741 29.6912 131.292 29.6833 130.839 29.6673L130.522 29.6554L130.688 29.9264C130.845 30.1815 130.968 30.5483 131.032 30.8074L131.064 30.9369H131.197C132.603 30.9369 133.532 30.9369 134.059 30.7536C134.668 30.5303 134.794 30.0779 134.794 29.468V18.6794H127.344V24.4534L127.342 24.4514ZM129.531 21.2525L129.411 21.1887L128.669 22.0577L128.853 22.1573C130.138 22.8549 131.836 23.8654 132.734 24.5471L132.869 24.6487L133.465 23.8754V24.4554C131.672 25.3622 129.844 26.2711 128.506 26.8351C128.603 26.1096 128.651 25.3164 128.651 24.4514V19.9729H133.465V23.5704C132.531 22.9087 130.764 21.9082 129.533 21.2525H129.531Z" fill="#0D0D0D"/>
<path d="M172.747 15.9329H167.829C168.038 15.4167 168.254 14.8387 168.463 14.2746L168.6 13.9059L167.146 13.5372L167.108 13.7086C166.977 14.2945 166.725 15.1914 166.485 15.9329H162.948V23.5206H167.085V29.6015C167.085 29.7331 167.085 29.761 166.868 29.7769H166.662C166.503 29.7809 166.276 29.7829 166.004 29.7829C165.466 29.7829 164.946 29.7749 164.457 29.757L164.183 29.747L164.298 29.9982C164.421 30.2692 164.55 30.632 164.61 30.8771L164.642 31.0047H164.773C165.154 31.0126 165.498 31.0146 165.804 31.0146C166.67 31.0146 167.289 30.9867 167.7 30.8432C168.298 30.624 168.417 30.2214 168.417 29.6015V23.5206H172.749V15.9329H172.747ZM171.416 20.2978V22.2909H164.255V20.2978H171.416ZM171.416 17.1626V19.1119H164.255V17.1626H171.416V17.1626Z" fill="#0D0D0D"/>
<path d="M158.715 14.9124L158.854 15.028L159.687 13.9039L159.554 13.8023C158.779 13.2064 157.172 12.146 155.895 11.3886L155.774 11.3169L154.946 12.2696L155.115 12.3752C156.263 13.0927 157.867 14.1949 158.717 14.9104L158.715 14.9124Z" fill="#0D0D0D"/>
<path d="M159.142 23.4628L158.014 22.6536L157.933 22.8529C156.94 25.2526 155.512 28.1825 154.537 29.8168L154.453 29.9563L155.647 30.7556L155.736 30.5941C156.708 28.8382 157.961 26.2213 159.087 23.5904L159.14 23.4648L159.142 23.4628Z" fill="#0D0D0D"/>
<path d="M157.867 20.6525L158.674 19.5264L158.535 19.4268C157.659 18.795 156.008 17.8223 154.831 17.1885L154.714 17.1248L153.852 18.0755L154.042 18.1791C155.357 18.8946 156.948 19.945 157.726 20.5449L157.865 20.6525H157.867Z" fill="#0D0D0D"/>
<path d="M161.732 13.3957H173.696V12.0822H160.38V18.1592C160.38 21.9122 160.076 26.6577 157.716 30.0679L157.593 30.2433L157.792 30.323C157.993 30.4048 158.423 30.6519 158.574 30.8034L158.717 30.9489L158.835 30.7815C161.432 27.0603 161.732 21.7966 161.732 18.1592V13.3957V13.3957Z" fill="#0D0D0D"/>
<path d="M165.315 24.8978L164.006 24.575L163.949 24.7045C163.287 26.1834 162.261 27.7001 161.204 28.7624L161.055 28.9119L161.412 29.1411C161.641 29.2866 161.955 29.4859 162.086 29.5836L162.209 29.6753L162.312 29.5617C163.353 28.4296 164.471 26.7135 165.228 25.0832L165.315 24.8958V24.8978Z" fill="#0D0D0D"/>
<path d="M173.911 28.7146C173.299 27.6264 172.135 25.8346 171.204 24.547L171.126 24.4414L169.919 24.9138L170.042 25.0912C170.94 26.3807 172.064 28.2064 172.659 29.3365L172.735 29.4819L173.998 28.8741L173.909 28.7146H173.911Z" fill="#0D0D0D"/>
<path d="M70.9801 40.0295H72.0863L75.6116 45.3271L79.1368 40.0295H80.241V49.7379H79.1487V41.8731L75.6255 47.0751H75.5698L72.0446 41.887V49.7379H70.9801V40.0295V40.0295Z" fill="#0D0D0D"/>
<path d="M82.3978 39.8202H83.6153V41.0001H82.3978V39.8202ZM82.4673 42.5667H83.5319V49.7378H82.4673V42.5667Z" fill="#0D0D0D"/>
<path d="M88.7989 49.9053C88.2726 49.9053 87.786 49.8056 87.3411 49.6083C86.8943 49.409 86.507 49.1399 86.1793 48.8031C85.8536 48.4643 85.5954 48.0697 85.4127 47.6152C85.23 47.1628 85.1386 46.6864 85.1386 46.1862V46.1583C85.1386 45.65 85.23 45.1677 85.4127 44.7153C85.5954 44.2628 85.8536 43.8642 86.1793 43.5234C86.507 43.1806 86.8943 42.9095 87.3411 42.7102C87.786 42.5109 88.2726 42.4113 88.7989 42.4113C89.1385 42.4113 89.4483 42.4431 89.7244 42.5089C90.0004 42.5727 90.2547 42.6644 90.485 42.78C90.7154 42.8956 90.9279 43.0311 91.1206 43.1886C91.3132 43.346 91.4939 43.5114 91.6608 43.6868L90.9557 44.4362C90.6697 44.1413 90.3599 43.8861 90.0223 43.6729C89.6847 43.4596 89.2735 43.354 88.785 43.354C88.4255 43.354 88.0879 43.4257 87.7761 43.5692C87.4623 43.7127 87.1902 43.9101 86.9598 44.1592C86.7294 44.4083 86.5487 44.7033 86.4216 45.0401C86.2925 45.377 86.227 45.7417 86.227 46.1304V46.1583C86.227 46.5469 86.2945 46.9097 86.4276 47.2465C86.5606 47.5853 86.7453 47.8803 86.9797 48.1354C87.214 48.3886 87.4921 48.5899 87.8098 48.7334C88.1276 48.8769 88.4732 48.9486 88.8525 48.9486C89.3133 48.9486 89.7204 48.847 90.0759 48.6437C90.4314 48.4404 90.7512 48.1853 91.0352 47.8803L91.7144 48.5181C91.3549 48.9247 90.9458 49.2575 90.491 49.5166C90.0342 49.7757 89.4702 49.9053 88.7989 49.9053V49.9053Z" fill="#0D0D0D"/>
<path d="M93.041 42.5667H94.1055V44.4382C94.2346 44.1432 94.3975 43.8702 94.5901 43.619C94.7828 43.3699 95.0052 43.1547 95.2535 42.9733C95.5017 42.7939 95.7738 42.6564 96.0677 42.5647C96.3637 42.473 96.6814 42.4292 97.021 42.4391V43.5911H96.9376C96.5503 43.5911 96.1849 43.6609 95.8393 43.7984C95.4938 43.9379 95.1919 44.1452 94.9337 44.4223C94.6775 44.6993 94.4729 45.0441 94.326 45.4547C94.179 45.8673 94.1055 46.3416 94.1055 46.8778V49.7339H93.041V42.5627V42.5667Z" fill="#0D0D0D"/>
<path d="M101.472 49.9053C100.938 49.9053 100.445 49.8056 99.9942 49.6083C99.5414 49.409 99.1501 49.1399 98.8184 48.8031C98.4868 48.4642 98.2286 48.0716 98.0439 47.6232C97.8592 47.1747 97.7678 46.6964 97.7678 46.1881V46.1602C97.7678 45.652 97.8592 45.1697 98.0439 44.7172C98.2286 44.2648 98.4868 43.8662 98.8184 43.5254C99.1501 43.1825 99.5433 42.9115 100 42.7122C100.455 42.5129 100.955 42.4132 101.498 42.4132C102.04 42.4132 102.528 42.5129 102.985 42.7122C103.44 42.9115 103.835 43.1786 104.167 43.5174C104.499 43.8562 104.757 44.2489 104.939 44.6973C105.124 45.1457 105.217 45.6261 105.217 46.1343V46.1622C105.217 46.6705 105.122 47.1508 104.933 47.6052C104.745 48.0597 104.485 48.4563 104.153 48.7991C103.821 49.1399 103.426 49.411 102.965 49.6103C102.505 49.8096 102.006 49.9073 101.472 49.9073V49.9053ZM101.5 48.9486C101.887 48.9486 102.242 48.8748 102.566 48.7273C102.89 48.5798 103.164 48.3805 103.394 48.1294C103.625 47.8803 103.803 47.5893 103.934 47.2564C104.064 46.9236 104.127 46.5668 104.127 46.1881V46.1602C104.127 45.7716 104.06 45.4088 103.929 45.07C103.793 44.7332 103.607 44.4362 103.368 44.1831C103.13 43.928 102.848 43.7267 102.526 43.5792C102.203 43.4317 101.853 43.3579 101.476 43.3579C101.098 43.3579 100.735 43.4337 100.413 43.5792C100.09 43.7267 99.8174 43.926 99.589 44.1751C99.3626 44.4262 99.1859 44.7192 99.0568 45.0561C98.9277 45.3949 98.8621 45.7516 98.8621 46.1323V46.1602C98.8621 46.5489 98.9297 46.9116 99.0627 47.2485C99.1958 47.5873 99.3805 47.8803 99.6148 48.1294C99.8492 48.3785 100.129 48.5798 100.453 48.7273C100.775 48.8748 101.124 48.9486 101.502 48.9486H101.5Z" fill="#0D0D0D"/>
<path d="M110.61 40.0295H117.604V41.014H111.702V44.3565H116.983V45.3411H111.702V48.7532H117.674V49.7358H110.61V40.0275V40.0295Z" fill="#0D0D0D"/>
<path d="M119.358 39.6129H120.423V49.7378H119.358V39.6129Z" fill="#0D0D0D"/>
<path d="M123.104 46.5908C123.142 46.9695 123.233 47.3063 123.382 47.6033C123.529 47.8982 123.717 48.1494 123.948 48.3527C124.178 48.556 124.436 48.7114 124.722 48.8171C125.008 48.9247 125.308 48.9765 125.62 48.9765C126.119 48.9765 126.544 48.8848 126.899 48.6995C127.255 48.5161 127.578 48.269 127.874 47.964L128.538 48.5599C128.178 48.9665 127.767 49.2934 127.308 49.5386C126.845 49.7837 126.275 49.9053 125.594 49.9053C125.106 49.9053 124.645 49.8136 124.212 49.6342C123.777 49.4528 123.4 49.1997 123.078 48.8709C122.754 48.542 122.5 48.1474 122.309 47.685C122.121 47.2226 122.027 46.7143 122.027 46.1603C122.027 45.642 122.111 45.1557 122.282 44.6973C122.452 44.2389 122.689 43.8423 122.993 43.5054C123.298 43.1686 123.658 42.9015 124.077 42.7062C124.496 42.5129 124.955 42.4152 125.453 42.4152C125.98 42.4152 126.448 42.5149 126.863 42.7142C127.278 42.9135 127.628 43.1826 127.914 43.5274C128.2 43.8682 128.416 44.2708 128.563 44.7332C128.71 45.1976 128.784 45.6899 128.784 46.2181V46.3775C128.784 46.4373 128.78 46.509 128.77 46.5928H123.104V46.5908ZM127.707 45.7158C127.68 45.3929 127.61 45.088 127.499 44.799C127.39 44.508 127.239 44.2549 127.05 44.0336C126.861 43.8124 126.631 43.639 126.361 43.5094C126.089 43.3819 125.777 43.3161 125.427 43.3161C125.124 43.3161 124.838 43.3759 124.569 43.4955C124.303 43.6151 124.067 43.7825 123.864 43.9997C123.664 44.217 123.495 44.4721 123.36 44.7651C123.227 45.0601 123.142 45.377 123.104 45.7178H127.707V45.7158Z" fill="#0D0D0D"/>
<path d="M133.443 49.9053C132.917 49.9053 132.43 49.8056 131.985 49.6083C131.538 49.409 131.149 49.1399 130.823 48.8031C130.496 48.4643 130.24 48.0697 130.055 47.6152C129.87 47.1628 129.779 46.6864 129.779 46.1862V46.1583C129.779 45.65 129.87 45.1677 130.055 44.7153C130.238 44.2628 130.494 43.8642 130.823 43.5234C131.149 43.1806 131.536 42.9095 131.985 42.7102C132.432 42.5109 132.919 42.4113 133.443 42.4113C133.783 42.4113 134.091 42.4431 134.369 42.5089C134.645 42.5727 134.899 42.6644 135.129 42.78C135.36 42.8956 135.572 43.0311 135.765 43.1886C135.959 43.346 136.138 43.5114 136.303 43.6868L135.598 44.4362C135.312 44.1413 135.002 43.8861 134.664 43.6729C134.329 43.4596 133.916 43.354 133.427 43.354C133.068 43.354 132.73 43.4257 132.418 43.5692C132.104 43.7127 131.832 43.9101 131.604 44.1592C131.374 44.4083 131.193 44.7033 131.064 45.0401C130.937 45.377 130.871 45.7417 130.871 46.1304V46.1583C130.871 46.5469 130.937 46.9097 131.072 47.2465C131.205 47.5853 131.389 47.8803 131.626 48.1354C131.86 48.3886 132.138 48.5899 132.456 48.7334C132.774 48.8769 133.121 48.9486 133.499 48.9486C133.959 48.9486 134.367 48.847 134.722 48.6437C135.076 48.4404 135.397 48.1853 135.681 47.8803L136.359 48.5181C136.001 48.9247 135.592 49.2575 135.137 49.5166C134.68 49.7757 134.114 49.9053 133.443 49.9053Z" fill="#0D0D0D"/>
<path d="M140.076 49.8634C139.79 49.8634 139.524 49.8275 139.274 49.7518C139.026 49.6781 138.811 49.5605 138.633 49.397C138.454 49.2356 138.313 49.0243 138.212 48.7672C138.11 48.5081 138.059 48.1972 138.059 47.8384V43.5114H137.064V42.5687H138.059V40.4042H139.123V42.5687H141.389V43.5114H139.123V47.6889C139.123 48.1314 139.234 48.4403 139.457 48.6157C139.677 48.7911 139.967 48.8788 140.327 48.8788C140.511 48.8788 140.684 48.8629 140.845 48.825C141.006 48.7911 141.181 48.7293 141.363 48.6436V49.5585C141.181 49.6601 140.984 49.7359 140.777 49.7877C140.569 49.8375 140.337 49.8634 140.078 49.8634H140.076Z" fill="#0D0D0D"/>
<path d="M142.841 42.5667H143.906V44.4382C144.035 44.1432 144.197 43.8702 144.388 43.619C144.583 43.3699 144.803 43.1547 145.053 42.9733C145.302 42.7939 145.574 42.6564 145.87 42.5647C146.164 42.473 146.481 42.4292 146.823 42.4391V43.5911H146.74C146.352 43.5911 145.987 43.6609 145.639 43.7984C145.294 43.9379 144.992 44.1452 144.734 44.4223C144.478 44.6993 144.275 45.0441 144.126 45.4547C143.977 45.8673 143.904 46.3416 143.904 46.8778V49.7339H142.839V42.5627L142.841 42.5667Z" fill="#0D0D0D"/>
<path d="M148.039 39.8202H149.254V41.0001H148.039V39.8202ZM148.108 42.5667H149.173V49.7378H148.108V42.5667Z" fill="#0D0D0D"/>
<path d="M154.438 49.9053C153.911 49.9053 153.425 49.8056 152.98 49.6083C152.533 49.409 152.146 49.1399 151.818 48.8031C151.492 48.4643 151.236 48.0697 151.051 47.6152C150.867 47.1628 150.773 46.6864 150.773 46.1862V46.1583C150.773 45.65 150.865 45.1677 151.051 44.7153C151.234 44.2628 151.49 43.8642 151.818 43.5234C152.146 43.1806 152.533 42.9095 152.98 42.7102C153.425 42.5109 153.911 42.4113 154.438 42.4113C154.777 42.4113 155.087 42.4431 155.363 42.5089C155.639 42.5727 155.893 42.6644 156.124 42.78C156.354 42.8956 156.565 43.0311 156.759 43.1886C156.952 43.346 157.133 43.5114 157.297 43.6868L156.592 44.4362C156.308 44.1413 155.997 43.8861 155.659 43.6729C155.323 43.4596 154.912 43.354 154.422 43.354C154.062 43.354 153.726 43.4257 153.413 43.5692C153.101 43.7127 152.827 43.9101 152.596 44.1592C152.368 44.4083 152.187 44.7033 152.058 45.0401C151.929 45.377 151.866 45.7417 151.866 46.1304V46.1583C151.866 46.5469 151.931 46.9097 152.066 47.2465C152.199 47.5853 152.384 47.8803 152.618 48.1354C152.855 48.3886 153.129 48.5899 153.446 48.7334C153.766 48.8769 154.112 48.9486 154.491 48.9486C154.952 48.9486 155.359 48.847 155.713 48.6437C156.068 48.4404 156.388 48.1853 156.674 47.8803L157.351 48.5181C156.992 48.9247 156.584 49.2575 156.128 49.5166C155.671 49.7757 155.107 49.9053 154.436 49.9053H154.438Z" fill="#0D0D0D"/>
<path d="M158.708 39.8202H159.925V41.0001H158.708V39.8202ZM158.777 42.5667H159.842V49.7378H158.777V42.5667Z" fill="#0D0D0D"/>
<path d="M164.28 49.8634C163.994 49.8634 163.726 49.8275 163.478 49.7518C163.23 49.6781 163.015 49.5605 162.836 49.397C162.656 49.2356 162.515 49.0243 162.415 48.7672C162.312 48.5081 162.263 48.1972 162.263 47.8384V43.5114H161.268V42.5687H162.263V40.4042H163.327V42.5687H165.593V43.5114H163.327V47.6889C163.327 48.1314 163.438 48.4403 163.659 48.6157C163.881 48.7911 164.171 48.8788 164.531 48.8788C164.715 48.8788 164.888 48.8629 165.049 48.825C165.21 48.7911 165.383 48.7293 165.567 48.6436V49.5585C165.383 49.6601 165.188 49.7359 164.979 49.7877C164.773 49.8375 164.539 49.8634 164.282 49.8634H164.28Z" fill="#0D0D0D"/>
<path d="M168.149 52C167.853 52 167.587 51.9701 167.347 51.9103C167.106 51.8506 166.868 51.7589 166.628 51.6393L166.987 50.7922C167.162 50.8839 167.335 50.9537 167.506 50.9935C167.676 51.0354 167.877 51.0553 168.107 51.0553C168.431 51.0553 168.701 50.9576 168.924 50.7643C169.144 50.571 169.361 50.2182 169.573 49.71L166.326 42.5667H167.502L170.099 48.544L172.395 42.5667H173.529L170.53 49.9731C170.227 50.7125 169.887 51.2347 169.514 51.5416C169.14 51.8466 168.687 51.998 168.153 51.998L168.149 52Z" fill="#0D0D0D"/>
</g>
</g>
<defs>
<clipPath id="clip0_766_2490">
<rect width="174" height="55" fill="white"/>
</clipPath>
<clipPath id="clip1_766_2490">
<rect width="52.6533" height="55.1786" fill="white" transform="translate(-1.83331 -1.83337)"/>
</clipPath>
<clipPath id="clip2_766_2490">
<rect width="105" height="41" fill="white" transform="translate(69 11)"/>
</clipPath>
</defs>
</svg>
