<svg width="223" height="55" viewBox="0 0 223 55" fill="none" xmlns="http://www.w3.org/2000/svg">
<g clip-path="url(#clip0_1_1997)">
<g clip-path="url(#clip1_1_1997)">
<path d="M26.104 53.2757C26.8695 53.0669 27.6251 52.6195 28.341 51.854L39.9633 39.3866C37.6865 40.7089 35.4496 41.8125 33.3021 42.757C31.5821 43.5424 29.8223 44.2682 28.4106 44.6758C25.3385 47.5491 22.1868 49.955 19.413 51.0487C20.9739 51.7744 22.3161 52.3809 23.3799 52.8482C24.215 53.1763 25.2788 53.4845 26.0941 53.2658" fill="#009CCD"/>
<path d="M-1.83331 39.5755C3.60501 42.926 8.68542 45.7197 13.0102 47.9269C13.0102 47.9269 19.4925 47.7976 28.4105 44.6857C28.331 44.7056 28.2415 44.7354 28.152 44.7553C27.814 44.8448 27.3269 44.8846 26.7303 44.8846C19.9598 44.8846 -1.83331 39.5755 -1.83331 39.5755Z" fill="#76B5D5"/>
<path d="M28.4106 44.6857C19.4925 47.7976 13.0301 47.9269 13.0103 47.9269C15.4063 49.1497 17.5637 50.1937 19.413 51.0586C22.1868 49.955 25.3285 47.559 28.4106 44.6857Z" fill="#55A5CE"/>
<path d="M28.4106 44.6857C19.4925 47.7976 13.0301 47.9269 13.0103 47.9269C13.0103 47.9269 19.4925 47.7976 28.4106 44.6857Z" fill="#1EA4D0"/>
<path d="M5.96131 15.5057C5.75252 16.2713 5.76246 17.1561 6.07067 18.1603L11.0517 34.4554C11.0517 31.8207 11.2008 29.3352 11.4593 26.9988C11.6382 25.1197 11.8868 23.2307 12.2447 21.7991C11.3002 17.693 10.7932 13.7659 11.2207 10.813C9.8089 11.8073 8.61584 12.6623 7.68129 13.3582C6.9754 13.915 6.18003 14.6805 5.96131 15.4958" fill="#009CCD"/>
<path d="M17.1362 6.84612C14.8793 8.30761 12.8909 9.65974 11.2207 10.823C11.1113 11.5487 11.0616 12.3342 11.0616 13.1693C11.0616 15.7145 11.5289 18.717 12.2348 21.799C12.6324 19.7013 13.0997 17.7824 13.5968 16.0823C14.9291 11.4095 16.3905 8.30761 16.9274 7.24381C16.9274 7.24381 16.9672 7.15433 16.9871 7.11456C16.9871 7.11456 17.007 7.06485 17.0169 7.04497V7.02508C17.0169 7.02508 17.0169 7.0052 17.0268 7.0052C17.0268 7.0052 17.0467 6.97537 17.0467 6.95549C17.0666 6.92566 17.0766 6.89583 17.0865 6.87595V6.85607V6.83618" fill="#55A5CE"/>
<path d="M16.9374 7.24383C16.4005 8.30763 14.939 11.3996 13.6068 16.0724C14.939 11.4096 16.4005 8.30763 16.9374 7.24383ZM16.997 7.11458C16.997 7.11458 16.9572 7.19412 16.9374 7.23388C16.9572 7.19412 16.9771 7.15435 16.997 7.11458ZM17.0368 7.04498C17.0368 7.04498 17.0169 7.08475 17.0069 7.10464C17.0169 7.08475 17.0268 7.05493 17.0368 7.04498ZM17.0467 7.00522C17.0467 7.00522 17.0467 7.0251 17.0368 7.0251C17.0368 7.0251 17.0368 7.00522 17.0467 7.00522ZM17.0666 6.95551C17.0666 6.95551 17.0567 6.98533 17.0467 6.99527L17.0666 6.95551Z" fill="#1EA4D0"/>
<path d="M48.6228 17.524C48.066 16.9573 47.3005 16.5297 46.2765 16.2911L29.6732 12.4535C31.9499 13.7658 34.0377 15.1478 35.9267 16.5297C37.4678 17.6234 38.979 18.7866 40.0328 19.8007C44.0594 21.0335 47.7081 22.5547 50.0544 24.4039C49.9053 22.6839 49.7562 21.2324 49.6269 20.0691C49.4977 19.1843 49.2293 18.1105 48.6327 17.5041" fill="#009CCD"/>
<path d="M40.0328 19.8106C47.1911 25.9846 50.5317 31.5125 50.5416 31.5323C50.4024 28.838 50.2235 26.4519 50.0545 24.4138C47.7181 22.5646 44.0594 21.0434 40.0328 19.8106Z" fill="#55A5CE"/>
<path d="M40.0328 19.8106L40.2217 19.9995C43.274 23.0517 50.7305 48.5631 50.7305 48.5631C50.9194 42.1803 50.7902 36.3741 50.5416 31.5323C50.4323 31.3434 47.0718 25.8952 40.0328 19.8106Z" fill="#76B5D5"/>
<path d="M31.7909 -1.83331C26.1636 1.18908 21.2125 4.21148 17.1362 6.84614V6.86602V6.8859C17.1362 6.8859 17.1163 6.93561 17.0965 6.97538L17.0766 7.01515C17.0766 7.01515 17.0766 7.03504 17.0666 7.04498V7.06486C17.0666 7.06486 17.0467 7.10463 17.0269 7.12451C17.0269 7.12451 16.9871 7.20405 16.9672 7.25376C16.4303 8.31757 14.9688 11.4195 13.6366 16.0823C13.1494 17.8023 12.6822 19.7112 12.2745 21.8189C12.2944 21.7295 12.3143 21.64 12.3441 21.5604C13.4278 17.3848 31.7909 -1.83331 31.7909 -1.83331Z" fill="#76B5D5"/>
</g>
<path d="M82.6918 14.8659C82.6795 16.7225 82.6795 18.5792 82.6795 20.4236V21.3213C82.6795 23.1779 82.6795 25.0346 82.6918 26.879L84.267 27.0389V27.6783H78.8331V27.0389L80.3473 26.879C80.3961 25.0592 80.3595 23.2148 80.3961 21.6164L80.4328 15.8249L76.4154 27.6906H75.6095L71.4822 15.8987C71.5311 17.7431 71.5677 20.19 71.5677 20.9647V26.8299L73.2894 27.0512V27.6906H69.0156V27.0512L70.7618 26.8299L70.8228 14.9396L69.1011 14.6937V14.0297H73.1185L76.7695 24.4075L80.3229 14.0297H84.267V14.6937L82.6918 14.8536V14.8659Z" fill="#0D0D0D"/>
<path d="M90.9952 27.1249V27.6906H86.4649V27.1249L87.6616 26.9651C87.6738 25.9199 87.6982 24.3829 87.6982 23.3747V22.0713C87.6982 20.8909 87.686 20.19 87.6494 19.2678L86.3184 19.1202V18.6161L89.6642 17.571L89.8962 17.7308L89.8596 20.6081V23.3747C89.8596 24.3829 89.8718 25.9322 89.8962 26.9774L90.9952 27.1249ZM87.4296 14.1527C87.4296 13.3288 88.0279 12.7755 88.724 12.7755C89.42 12.7755 90.0183 13.3288 90.0183 14.1527C90.0183 14.9765 89.42 15.5175 88.724 15.5175C88.0279 15.5175 87.4296 14.9519 87.4296 14.1527Z" fill="#0D0D0D"/>
<path d="M98.5781 18.3333C98.3705 18.2596 98.1507 18.235 97.9309 18.235C96.3679 18.235 95.2689 19.8212 95.2689 22.5632C95.2689 25.3052 96.4656 26.7807 98.2484 26.7807C99.2375 26.7807 100.031 26.2888 100.617 25.4035L100.959 25.6126C100.288 27.1373 99.1032 28.0103 97.3692 28.0103C94.8782 28.0103 92.9977 26.0921 92.9977 22.8214C92.9977 19.5506 95.1346 17.571 97.6745 17.571C99.4206 17.571 100.715 18.7514 100.971 20.3376C100.825 20.9278 100.507 21.1983 100.019 21.1983C99.3962 21.1983 98.9322 20.8171 98.8345 19.7843L98.5903 18.3456L98.5781 18.3333Z" fill="#0D0D0D"/>
<path d="M106.43 20.3007C106.955 18.53 108.054 17.5587 109.043 17.5587C109.739 17.5587 110.325 17.8661 110.52 18.7391C110.471 19.5629 110.154 20.1408 109.385 20.1408C108.847 20.1408 108.493 19.7842 108.09 19.2555L107.907 19.0342C107.211 19.6367 106.772 20.4482 106.43 21.7393V23.3747C106.43 24.3706 106.442 25.8585 106.466 26.9036L107.98 27.1249V27.6906H103.023V27.1249L104.219 26.9651C104.232 25.9199 104.256 24.3829 104.256 23.3747V22.0467C104.256 20.854 104.244 20.19 104.195 19.3047L102.901 19.1571V18.6899L106.063 17.571L106.295 17.7308L106.442 20.2884L106.43 20.3007Z" fill="#0D0D0D"/>
<path d="M111.79 22.7476C111.79 19.4522 113.829 17.5587 116.235 17.5587C118.64 17.5587 120.68 19.4399 120.68 22.7476C120.68 26.0552 118.75 27.998 116.235 27.998C113.72 27.998 111.79 26.0429 111.79 22.7476ZM118.36 22.7722C118.36 19.735 117.566 18.2472 116.235 18.2472C114.904 18.2472 114.11 19.735 114.11 22.7722C114.11 25.8093 114.867 27.3217 116.235 27.3217C117.603 27.3217 118.36 25.8339 118.36 22.7722Z" fill="#0D0D0D"/>
<path d="M138.385 24.0018L138.337 27.7029H128.812V27.0635L130.375 26.9036C130.412 25.0838 130.412 23.2271 130.412 21.3458V20.4482C130.412 18.6038 130.412 16.7471 130.375 14.8904L128.812 14.7306V14.0666H138.007V17.6693H137.14L136.517 14.8412H132.744C132.695 16.6487 132.695 18.4809 132.695 20.4236H135.162L135.406 18.4194H136.175V23.055H135.406L135.174 21.1245H132.695C132.695 23.2025 132.695 25.0961 132.744 26.9774H136.847L137.482 24.0386H138.385V24.0018Z" fill="#0D0D0D"/>
<path d="M145.175 27.125V27.6906H140.4V27.125L141.67 26.9651C141.707 25.8093 141.719 24.5305 141.719 23.3747V14.042L140.388 13.9314V13.4149L143.697 12.628L143.929 12.7878L143.868 15.7143V23.3747C143.868 24.5305 143.88 25.8093 143.917 26.9774L145.187 27.125H145.175Z" fill="#0D0D0D"/>
<path d="M149.436 22.723C149.497 25.5388 150.755 26.7684 152.342 26.7684C153.527 26.7684 154.235 26.2151 154.809 25.3543L155.139 25.6126C154.479 27.125 153.234 27.9857 151.598 27.9857C149.009 27.9857 147.141 26.1044 147.141 22.7599C147.141 19.4154 149.314 17.5464 151.61 17.5464C153.905 17.5464 155.224 19.2555 155.224 21.5795C155.224 22.059 155.188 22.4033 155.114 22.723H149.424H149.436ZM152.245 22.0467C153.002 22.0467 153.185 21.6287 153.185 20.6819C153.185 19.194 152.477 18.235 151.475 18.235C150.474 18.235 149.534 19.3539 149.436 22.0467H152.245Z" fill="#0D0D0D"/>
<path d="M162.954 18.3333C162.746 18.2596 162.526 18.235 162.306 18.235C160.743 18.235 159.644 19.8212 159.644 22.5632C159.644 25.3052 160.841 26.7807 162.624 26.7807C163.613 26.7807 164.407 26.2888 164.993 25.4035L165.335 25.6126C164.663 27.1373 163.479 28.0103 161.745 28.0103C159.266 28.0103 157.373 26.0921 157.373 22.8214C157.373 19.5506 159.51 17.571 162.05 17.571C163.796 17.571 165.09 18.7514 165.335 20.3376C165.188 20.9278 164.871 21.1983 164.382 21.1983C163.759 21.1983 163.295 20.8171 163.198 19.7843L162.954 18.3456V18.3333Z" fill="#0D0D0D"/>
<path d="M173.064 26.6823C172.588 27.5061 171.819 27.9857 170.695 27.9857C169.181 27.9857 168.339 27.1619 168.339 25.2806C168.339 24.6904 168.351 24.1739 168.351 23.4362V18.6161H166.934V18.0136L168.461 17.8292L169.169 14.9396H170.585L170.537 17.8415H172.71V18.6161H170.524V25.4281C170.524 26.461 170.939 26.8791 171.599 26.8791C172.026 26.8791 172.319 26.6946 172.771 26.3257L173.064 26.6823Z" fill="#0D0D0D"/>
<path d="M177.912 20.3007C178.437 18.53 179.536 17.5587 180.525 17.5587C181.221 17.5587 181.807 17.8661 182.002 18.7391C181.954 19.5629 181.636 20.1408 180.867 20.1408C180.33 20.1408 179.975 19.7842 179.56 19.2555L179.377 19.0342C178.681 19.6367 178.242 20.4482 177.9 21.7393V23.3747C177.9 24.3706 177.912 25.8585 177.936 26.9036L179.45 27.1249V27.6906H174.493V27.1249L175.689 26.9651C175.702 25.9199 175.726 24.3829 175.726 23.3747V22.0467C175.726 20.854 175.714 20.19 175.665 19.3047L174.371 19.1571V18.6899L177.533 17.571L177.765 17.7308L177.912 20.2884V20.3007Z" fill="#0D0D0D"/>
<path d="M188.059 27.1249V27.6906H183.541V27.1249L184.738 26.9651C184.75 25.9199 184.774 24.3829 184.774 23.3747V22.0713C184.774 20.8909 184.762 20.19 184.726 19.2678L183.395 19.1202V18.6161L186.728 17.571L186.96 17.7308L186.923 20.6081V23.3747C186.923 24.3829 186.936 25.9322 186.96 26.9774L188.059 27.1249ZM184.493 14.1527C184.493 13.3288 185.08 12.7755 185.788 12.7755C186.496 12.7755 187.082 13.3288 187.082 14.1527C187.082 14.9765 186.484 15.5175 185.788 15.5175C185.092 15.5175 184.493 14.9519 184.493 14.1527Z" fill="#0D0D0D"/>
<path d="M195.642 18.3333C195.434 18.2596 195.215 18.235 194.995 18.235C193.432 18.235 192.333 19.8212 192.333 22.5632C192.333 25.3052 193.53 26.7807 195.312 26.7807C196.301 26.7807 197.083 26.2888 197.681 25.4035L198.023 25.6126C197.352 27.1373 196.167 28.0103 194.433 28.0103C191.954 28.0103 190.062 26.0921 190.062 22.8214C190.062 19.5506 192.199 17.571 194.738 17.571C196.485 17.571 197.779 18.7514 198.023 20.3376C197.877 20.9278 197.559 21.1983 197.071 21.1983C196.448 21.1983 195.984 20.8171 195.886 19.7843L195.642 18.3456V18.3333Z" fill="#0D0D0D"/>
<path d="M204.641 27.1249V27.6906H200.111V27.1249L201.308 26.9651C201.32 25.9199 201.344 24.3829 201.344 23.3747V22.0713C201.344 20.8909 201.332 20.19 201.296 19.2678L199.965 19.1202V18.6161L203.31 17.571L203.542 17.7308L203.506 20.6081V23.3747C203.506 24.3829 203.518 25.9322 203.542 26.9774L204.641 27.1249ZM201.076 14.1527C201.076 13.3288 201.674 12.7755 202.37 12.7755C203.066 12.7755 203.677 13.3288 203.677 14.1527C203.677 14.9765 203.078 15.5175 202.37 15.5175C201.662 15.5175 201.076 14.9519 201.076 14.1527Z" fill="#0D0D0D"/>
<path d="M212.322 26.6823C211.846 27.5061 211.076 27.9857 209.953 27.9857C208.439 27.9857 207.596 27.1619 207.596 25.2806C207.596 24.6904 207.609 24.1739 207.609 23.4362V18.6161H206.192V18.0136L207.718 17.8292L208.427 14.9396H209.843L209.794 17.8415H211.968V18.6161H209.782V25.4281C209.782 26.461 210.197 26.8791 210.844 26.8791C211.272 26.8791 211.565 26.6946 212.017 26.3257L212.31 26.6823H212.322Z" fill="#0D0D0D"/>
<path d="M222.75 18.4194L221.675 18.5793L218.305 28.5882C217.267 31.6622 215.936 32.6705 214.813 32.6705C213.946 32.6705 213.116 32.1172 213.103 31.3425C213.201 30.6417 213.799 30.3097 214.373 30.3097C214.984 30.3097 215.387 30.6539 215.814 31.2073L216.046 31.5024C216.754 30.863 217.243 29.8793 217.744 28.5267L214.056 18.5178L213.091 18.4071V17.8415H217.768V18.4071L216.413 18.567L218.733 25.6495L220.87 18.5793L219.319 18.3948V17.8292H222.738V18.3948L222.75 18.4194Z" fill="#0D0D0D"/>
<path d="M74.4128 41.167V41.499C74.2053 41.5728 73.9733 41.6097 73.668 41.6097C73.0452 41.6097 72.7766 41.4129 72.6667 40.8965L72.3248 39.3595C72.1661 38.5726 71.8974 38.3266 71.1648 38.3266H70.7008C70.7008 39.2734 70.7008 40.171 70.7008 41.0686L71.5311 41.167V41.499H68.918V41.167L69.7361 41.0686C69.7483 40.171 69.7483 39.2611 69.7483 38.3512V37.884C69.7483 36.9864 69.7483 36.0642 69.7361 35.1666L68.918 35.0682V34.7362H71.5555C72.9353 34.7362 73.729 35.3879 73.729 36.4945C73.729 37.2815 73.2406 37.9823 72.1294 38.1914C72.8376 38.3266 73.1307 38.7201 73.3139 39.5316L73.7046 41.1055L74.4251 41.1793L74.4128 41.167ZM71.3846 37.9578C72.3248 37.9578 72.7766 37.3184 72.7766 36.4822C72.7766 35.6461 72.3492 35.1051 71.4212 35.1051H70.7008C70.7008 36.0027 70.7008 36.9126 70.7008 37.9701H71.3846V37.9578Z" fill="#0D0D0D"/>
<path d="M75.927 39.0398C75.9514 40.417 76.5742 41.0441 77.4167 41.0441C78.0028 41.0441 78.3569 40.7735 78.6744 40.3309L78.8332 40.4539C78.5035 41.1793 77.9051 41.622 77.1114 41.622C75.8659 41.622 74.9868 40.6875 74.9868 39.0767C74.9868 37.4659 76.0125 36.5068 77.1237 36.5068C78.1616 36.5068 78.8576 37.2938 78.8576 38.4619C78.8576 38.6955 78.8454 38.88 78.7965 39.0275H75.9148L75.927 39.0398ZM77.551 38.6832C77.9296 38.6832 78.015 38.4742 78.015 38.0807C78.015 37.4044 77.6243 36.8757 77.0748 36.8757C76.5253 36.8757 76.0003 37.4167 75.9392 38.6832H77.551Z" fill="#0D0D0D"/>
<path d="M84.7432 41.2039V41.499H82.5941V41.2039L83.2413 41.1055C83.2413 40.5891 83.2535 39.8759 83.2535 39.3718V38.3267C83.2535 37.4659 83.0215 37.1708 82.533 37.1708C82.1789 37.1708 81.7882 37.3676 81.3364 37.8225V39.3718C81.3364 39.8637 81.3364 40.5891 81.3486 41.1055L81.9469 41.2039V41.499H79.7978V41.2039L80.445 41.1055C80.4572 40.5768 80.4694 39.8391 80.4694 39.3718V38.7816C80.4694 38.2037 80.4572 37.8471 80.4328 37.429L79.7368 37.3553V37.0848L81.1288 36.5437L81.2509 36.6298L81.3119 37.4536C81.8004 36.8388 82.3621 36.5314 82.9116 36.5314C83.6809 36.5314 84.1082 37.0602 84.1082 38.3389V39.3718C84.1082 39.8759 84.1082 40.5891 84.1204 41.1055L84.7188 41.2039H84.7432Z" fill="#0D0D0D"/>
<path d="M86.5138 39.0398C86.5382 40.417 87.161 41.0441 88.0035 41.0441C88.5896 41.0441 88.9437 40.7735 89.2612 40.3309L89.42 40.4539C89.0903 41.1793 88.4919 41.622 87.6982 41.622C86.4527 41.622 85.5735 40.6875 85.5735 39.0767C85.5735 37.4659 86.587 36.5068 87.7104 36.5068C88.7606 36.5068 89.4444 37.2938 89.4444 38.4619C89.4444 38.6955 89.4322 38.88 89.3833 39.0275H86.5016L86.5138 39.0398ZM88.1378 38.6832C88.5164 38.6832 88.6018 38.4742 88.6018 38.0807C88.6018 37.4044 88.2111 36.8757 87.6616 36.8757C87.1121 36.8757 86.587 37.4167 86.526 38.6832H88.1378Z" fill="#0D0D0D"/>
<path d="M96.9418 36.974L96.4167 37.0847L95.0491 41.5482H94.6828C93.9868 39.4947 93.7059 38.5848 93.5106 37.8594L92.3139 41.5482H91.9354L90.4701 37.0478L89.9816 36.9618V36.6421H92.1063V36.9618L91.4103 37.0478L92.375 40.38L93.4129 37.0478L92.7413 36.9495V36.6298H94.7316V36.9495L94.0478 37.0601L95.1224 40.3554L96.0138 37.0724L95.2811 36.9495V36.6298H96.9418V36.9495V36.974Z" fill="#0D0D0D"/>
<path d="M101.68 41.0564C101.484 41.4744 101.216 41.622 100.849 41.622C100.385 41.622 100.092 41.3146 100.007 40.8227C99.5305 41.3638 99.213 41.6466 98.6391 41.6466C97.9675 41.6466 97.4547 41.2039 97.4547 40.417C97.4547 39.7407 97.7966 39.2857 99.0054 38.8185C99.2863 38.7324 99.6526 38.6095 99.9945 38.5111V38.1299C99.9945 37.1462 99.7503 36.8757 99.1398 36.8757C98.9932 36.8757 98.8345 36.9003 98.6513 36.9495L98.517 37.6258C98.4559 38.0069 98.2728 38.1914 98.0286 38.1914C97.7843 38.1914 97.6256 38.0561 97.589 37.7856C97.7355 36.9987 98.3949 36.5068 99.4084 36.5068C100.422 36.5068 100.861 36.9987 100.861 38.2652V40.5276C100.861 40.9826 100.984 41.1301 101.167 41.1301C101.313 41.1301 101.411 41.0564 101.545 40.8719L101.692 41.0318L101.68 41.0564ZM99.9823 38.8062C99.6892 38.9046 99.4084 39.0029 99.2374 39.0767C98.517 39.3964 98.3216 39.8022 98.3216 40.2571C98.3216 40.7981 98.6147 41.0441 99.0176 41.0441C99.3107 41.0441 99.5183 40.9211 99.9823 40.503V38.8062Z" fill="#0D0D0D"/>
<path d="M103.755 37.2446C104.171 36.7405 104.647 36.5191 105.148 36.5191C106.149 36.5191 106.894 37.4413 106.894 39.0398C106.894 40.6383 106.149 41.6343 105.038 41.6343C104.598 41.6343 104.146 41.4744 103.743 40.9334L103.646 41.5974L102.229 41.499V41.2039L102.876 41.0932C102.876 40.5768 102.889 39.839 102.889 39.3595V34.7608L102.18 34.687V34.4042L103.658 34.0107L103.768 34.0845L103.743 35.5231V37.2446H103.755ZM103.768 40.6014C104.097 40.9457 104.439 41.0932 104.769 41.0932C105.404 41.0932 105.953 40.5645 105.953 39.0767C105.953 37.6995 105.477 37.0479 104.806 37.0479C104.513 37.0479 104.207 37.1216 103.78 37.552V40.6014H103.768Z" fill="#0D0D0D"/>
<path d="M109.959 41.2039V41.499H107.675V41.2039L108.371 41.1055C108.371 40.5399 108.383 39.9251 108.383 39.3718V34.7731L107.675 34.6993V34.4165L109.165 34.023L109.287 34.0968L109.25 35.5354V39.3718C109.25 39.9374 109.25 40.5399 109.263 41.1055L109.946 41.2039H109.959Z" fill="#0D0D0D"/>
<path d="M111.717 39.0398C111.741 40.417 112.364 41.0441 113.207 41.0441C113.793 41.0441 114.147 40.7735 114.464 40.3309L114.623 40.4539C114.293 41.1793 113.695 41.622 112.901 41.622C111.656 41.622 110.777 40.6875 110.777 39.0767C110.777 37.4659 111.802 36.5068 112.914 36.5068C113.964 36.5068 114.648 37.2938 114.648 38.4619C114.648 38.6955 114.635 38.88 114.586 39.0275H111.705L111.717 39.0398ZM113.341 38.6832C113.719 38.6832 113.805 38.4742 113.805 38.0807C113.805 37.4044 113.414 36.8757 112.865 36.8757C112.315 36.8757 111.79 37.4167 111.729 38.6832H113.341Z" fill="#0D0D0D"/>
<path d="M119.739 35.1297C119.739 36.015 119.739 36.9126 119.739 37.8594H121.095L121.205 36.8634H121.583V39.2857H121.205L121.095 38.2406H119.739C119.739 39.2488 119.739 40.1587 119.739 41.0686L120.619 41.167V41.499H117.944V41.167L118.763 41.0686C118.775 40.171 118.775 39.2611 118.775 38.3512V37.884C118.775 36.9864 118.775 36.0642 118.763 35.1666L117.944 35.0682V34.7362H122.487L122.524 36.5068H122.084L121.828 35.142H119.752L119.739 35.1297Z" fill="#0D0D0D"/>
<path d="M127.896 41.2039V41.499L126.504 41.5974L126.443 40.6629C126.016 41.2654 125.442 41.6343 124.868 41.6343C124.099 41.6343 123.635 41.1424 123.647 39.7899L123.671 37.1831L123.036 37.0478V36.765L124.477 36.5806L124.563 36.679L124.526 38.1176V39.7776C124.526 40.6506 124.783 40.9457 125.259 40.9457C125.674 40.9457 126.077 40.7121 126.431 40.3186V37.1708L125.82 37.0355V36.765L127.249 36.5683L127.335 36.6667L127.31 38.1053V41.1055L127.908 41.1916L127.896 41.2039Z" fill="#0D0D0D"/>
<path d="M131.413 41.0563C131.181 41.4252 130.815 41.6342 130.314 41.6342C129.618 41.6342 129.239 41.2408 129.239 40.3923C129.239 40.1218 129.239 39.8759 129.239 39.4947V37.0724H128.495V36.7404L129.288 36.6421L129.569 35.228H130.155L130.119 36.6544H131.279V37.0724H130.106V40.3923C130.106 40.9211 130.314 41.1424 130.644 41.1424C130.851 41.1424 131.01 41.0563 131.242 40.8596L131.401 41.0686L131.413 41.0563Z" fill="#0D0D0D"/>
<path d="M136.761 41.2039V41.499L135.369 41.5974L135.308 40.6629C134.881 41.2654 134.307 41.6343 133.733 41.6343C132.964 41.6343 132.5 41.1424 132.512 39.7899L132.536 37.1831L131.901 37.0478V36.765L133.342 36.5806L133.428 36.679L133.391 38.1176V39.7776C133.391 40.6506 133.648 40.9457 134.124 40.9457C134.539 40.9457 134.942 40.7121 135.296 40.3186V37.1708L134.686 37.0355V36.765L136.114 36.5683L136.2 36.6667L136.175 38.1053V41.1055L136.774 41.1916L136.761 41.2039Z" fill="#0D0D0D"/>
<path d="M139.13 37.884C139.399 37.0232 139.936 36.5191 140.449 36.5191C140.754 36.5191 141.047 36.6544 141.145 36.9741C141.145 37.3921 140.986 37.6749 140.62 37.6749C140.376 37.6749 140.205 37.5274 140.022 37.3183L139.912 37.1954C139.545 37.5028 139.313 37.9331 139.142 38.5848V39.3595C139.142 39.839 139.142 40.5522 139.155 41.0686L139.924 41.2039V41.499H137.616V41.2039L138.251 41.1055C138.263 40.5768 138.275 39.839 138.275 39.3718V38.7816C138.275 38.2037 138.263 37.8471 138.239 37.429L137.543 37.3552V37.0847L138.935 36.5437L139.057 36.6298L139.142 37.884H139.13Z" fill="#0D0D0D"/>
<path d="M142.574 39.0398C142.598 40.417 143.209 41.0441 144.063 41.0441C144.65 41.0441 145.004 40.7735 145.321 40.3309L145.48 40.4539C145.15 41.1793 144.552 41.622 143.758 41.622C142.513 41.622 141.633 40.6875 141.633 39.0767C141.633 37.4659 142.647 36.5068 143.77 36.5068C144.821 36.5068 145.504 37.2938 145.504 38.4619C145.504 38.6955 145.492 38.88 145.443 39.0275H142.562L142.574 39.0398ZM144.198 38.6832C144.576 38.6832 144.662 38.4742 144.662 38.0807C144.662 37.4044 144.271 36.8757 143.722 36.8757C143.172 36.8757 142.647 37.4167 142.586 38.6832H144.198Z" fill="#0D0D0D"/>
<path d="M151.427 34.7239C153.246 34.7239 154.418 35.9535 154.418 38.1053C154.418 40.2571 153.148 41.499 151.256 41.499H148.789V41.167L149.607 41.0686C149.619 40.171 149.619 39.2488 149.619 38.2282V37.8962C149.619 36.974 149.619 36.0518 149.607 35.1542L148.789 35.0559V34.7239H151.427ZM151.219 41.1178C152.623 41.1178 153.38 40.0112 153.38 38.1176C153.38 36.224 152.611 35.1051 151.28 35.1051H150.584C150.584 36.015 150.584 36.9372 150.584 37.8962V38.2159C150.584 39.2488 150.584 40.1956 150.584 41.1178H151.219Z" fill="#0D0D0D"/>
<path d="M156.348 39.0398C156.372 40.417 156.995 41.0441 157.837 41.0441C158.423 41.0441 158.79 40.7735 159.095 40.3309L159.254 40.4539C158.924 41.1793 158.326 41.622 157.532 41.622C156.286 41.622 155.407 40.6875 155.407 39.0767C155.407 37.4659 156.433 36.5068 157.544 36.5068C158.594 36.5068 159.278 37.2938 159.278 38.4619C159.278 38.6955 159.266 38.88 159.217 39.0275H156.335L156.348 39.0398ZM157.972 38.6832C158.35 38.6832 158.436 38.4742 158.436 38.0807C158.436 37.4044 158.045 36.8757 157.483 36.8757C156.921 36.8757 156.409 37.4167 156.348 38.6832H157.959H157.972Z" fill="#0D0D0D"/>
<path d="M164.394 36.9741L163.845 37.097L162.343 41.5605H161.928L160.304 37.0602L159.791 36.9741V36.6544H162.026V36.9741L161.293 37.0725L162.416 40.4539L163.466 37.0847L162.758 36.9618V36.6421H164.407V36.9618L164.394 36.9741Z" fill="#0D0D0D"/>
<path d="M165.774 39.0398C165.799 40.417 166.421 41.0441 167.264 41.0441C167.85 41.0441 168.204 40.7735 168.522 40.3309L168.693 40.4539C168.363 41.1793 167.765 41.622 166.971 41.622C165.725 41.622 164.846 40.6875 164.846 39.0767C164.846 37.4659 165.872 36.5068 166.983 36.5068C168.033 36.5068 168.717 37.2938 168.717 38.4619C168.717 38.6955 168.705 38.88 168.656 39.0275H165.774V39.0398ZM167.398 38.6832C167.777 38.6832 167.862 38.4742 167.862 38.0807C167.862 37.4044 167.472 36.8757 166.922 36.8757C166.373 36.8757 165.848 37.4167 165.786 38.6832H167.398Z" fill="#0D0D0D"/>
<path d="M171.733 41.2039V41.499H169.45V41.2039L170.146 41.1055C170.146 40.5399 170.158 39.9251 170.158 39.3718V34.7731L169.45 34.6993V34.4165L170.939 34.023L171.062 34.0968L171.025 35.5354V39.3718C171.025 39.9374 171.025 40.5399 171.037 41.1055L171.721 41.2039H171.733Z" fill="#0D0D0D"/>
<path d="M172.563 39.0767C172.563 37.4167 173.589 36.5191 174.7 36.5191C175.812 36.5191 176.837 37.4044 176.837 39.0767C176.837 40.7489 175.836 41.6342 174.7 41.6342C173.565 41.6342 172.563 40.7366 172.563 39.0767ZM175.885 39.0767C175.885 37.6257 175.445 36.8634 174.713 36.8634C173.98 36.8634 173.54 37.6134 173.54 39.0767C173.54 40.5399 173.968 41.2531 174.713 41.2531C175.457 41.2531 175.885 40.5153 175.885 39.0767Z" fill="#0D0D0D"/>
<path d="M179.194 37.2569C179.609 36.7404 180.085 36.5191 180.586 36.5191C181.575 36.5191 182.332 37.4536 182.332 39.0521C182.332 40.6506 181.514 41.6342 180.439 41.6342C180.024 41.6342 179.597 41.4744 179.218 40.9703V41.708C179.218 42.249 179.218 42.8761 179.231 43.4909L180.012 43.6139V43.909H177.668V43.6139L178.327 43.5032C178.339 42.9007 178.351 42.2859 178.351 41.7203V38.7816C178.351 38.2037 178.351 37.8471 178.315 37.4167L177.619 37.3429V37.0724L179.011 36.5314L179.121 36.6175L179.182 37.2569H179.194ZM179.231 40.6629C179.548 40.9703 179.841 41.0932 180.171 41.0932C180.867 41.0932 181.392 40.5399 181.392 39.1013C181.392 37.6626 180.928 37.0478 180.244 37.0478C179.988 37.0478 179.67 37.1339 179.243 37.552V40.6629H179.231Z" fill="#0D0D0D"/>
<path d="M190.855 41.2039V41.499H188.718V41.2039L189.341 41.1055C189.341 40.5891 189.353 39.8759 189.353 39.3718V38.3389C189.353 37.4413 189.134 37.1585 188.645 37.1585C188.291 37.1585 187.925 37.3553 187.485 37.8225C187.497 37.9824 187.51 38.1422 187.51 38.3267V39.3595C187.51 39.8636 187.51 40.5768 187.522 41.0932L188.12 41.1916V41.4867H185.983V41.1916L186.618 41.0932C186.618 40.5768 186.63 39.8636 186.63 39.3595V38.3389C186.63 37.4536 186.423 37.1585 185.934 37.1585C185.556 37.1585 185.189 37.3799 184.787 37.8348V39.3718C184.787 39.8637 184.786 40.5891 184.799 41.1055L185.397 41.2039V41.499H183.248V41.2039L183.895 41.1055C183.907 40.5768 183.92 39.8391 183.92 39.3718V38.7816C183.92 38.2037 183.907 37.8471 183.883 37.429L183.187 37.3553V37.0848L184.579 36.5437L184.701 36.6298L184.762 37.4536C185.226 36.8511 185.763 36.5314 186.313 36.5314C186.887 36.5314 187.265 36.8265 187.424 37.4782C187.925 36.8019 188.462 36.5314 189.036 36.5314C189.817 36.5314 190.233 37.0602 190.233 38.3021V39.3841C190.233 39.8882 190.233 40.6014 190.245 41.1178L190.843 41.2162L190.855 41.2039Z" fill="#0D0D0D"/>
<path d="M192.614 39.0398C192.638 40.417 193.261 41.0441 194.103 41.0441C194.69 41.0441 195.044 40.7735 195.361 40.3309L195.52 40.4539C195.19 41.1793 194.592 41.622 193.798 41.622C192.553 41.622 191.673 40.6875 191.673 39.0767C191.673 37.4659 192.699 36.5068 193.81 36.5068C194.86 36.5068 195.544 37.2938 195.544 38.4619C195.544 38.6955 195.532 38.88 195.483 39.0275H192.601L192.614 39.0398ZM194.238 38.6832C194.616 38.6832 194.702 38.4742 194.702 38.0807C194.702 37.4044 194.311 36.8757 193.762 36.8757C193.212 36.8757 192.687 37.4167 192.626 38.6832H194.238Z" fill="#0D0D0D"/>
<path d="M201.43 41.2039V41.499H199.281V41.2039L199.928 41.1055C199.928 40.5891 199.94 39.8759 199.94 39.3718V38.3267C199.94 37.4659 199.708 37.1708 199.22 37.1708C198.866 37.1708 198.475 37.3676 198.023 37.8225V39.3718C198.023 39.8637 198.023 40.5891 198.035 41.1055L198.634 41.2039V41.499H196.485V41.2039L197.119 41.1055C197.132 40.5768 197.144 39.8391 197.144 39.3718V38.7816C197.144 38.2037 197.132 37.8471 197.107 37.429L196.411 37.3553V37.0848L197.803 36.5437L197.925 36.6298L197.986 37.4536C198.475 36.8388 199.037 36.5314 199.586 36.5314C200.355 36.5314 200.783 37.0602 200.783 38.3389V39.3718C200.783 39.8759 200.783 40.5891 200.795 41.1055L201.393 41.2039H201.43Z" fill="#0D0D0D"/>
<path d="M204.873 41.0563C204.641 41.4252 204.275 41.6342 203.774 41.6342C203.078 41.6342 202.7 41.2408 202.7 40.3923C202.7 40.1218 202.7 39.8759 202.7 39.4947V37.0724H201.955V36.7404L202.749 36.6421L203.03 35.228H203.628L203.591 36.6544H204.751V37.0724H203.579V40.3923C203.579 40.9211 203.787 41.1424 204.116 41.1424C204.324 41.1424 204.483 41.0563 204.715 40.8596L204.873 41.0686V41.0563Z" fill="#0D0D0D"/>
</g>
<defs>
<clipPath id="clip0_1_1997">
<rect width="222.75" height="55" fill="white"/>
</clipPath>
<clipPath id="clip1_1_1997">
<rect width="52.6533" height="55.1786" fill="white" transform="translate(-1.83331 -1.83331)"/>
</clipPath>
</defs>
</svg>
